<svg version="1.1" xmlns="http://www.w3.org/2000/svg" width="537" height="202"><defs><clipPath id="mHNuQRPLZJcL"><path fill="none" stroke="none" d="M 0.5 0.5 L 537.5 0.5 L 537.5 202.5 L 0.5 202.5 L 0.5 0.5 Z M 82.5 30.5 L 532.5 30.5 L 532.5 180.5 L 82.5 180.5 L 82.5 30.5 Z" clip-rule="evenodd"/></clipPath><clipPath id="ARWUJTToBlVr"><path fill="none" stroke="none" d="M 82.5 30.5 L 532.5 30.5 L 532.5 180.5 L 82.5 180.5 L 82.5 30.5 Z"/></clipPath><clipPath id="mJtkFbeMdgOt"><path fill="none" stroke="none" d="M 82.5 30.5 L 532.5 30.5 L 532.5 180.5 L 82.5 180.5 L 82.5 30.5 Z"/></clipPath><clipPath id="dnkSfuacxZVw"><path fill="none" stroke="none" d="M 82.5 30.5 L 532.5 30.5 L 532.5 180.5 L 82.5 180.5 L 82.5 30.5 Z"/></clipPath><clipPath id="TWIbVhRMHVst"><path fill="none" stroke="none" d="M 82.5 30.5 L 532.5 30.5 L 532.5 180.5 L 82.5 180.5 L 82.5 30.5 Z"/></clipPath><clipPath id="IHFTOKWfVCaM"><path fill="none" stroke="none" d="M 82.5 30.5 L 532.5 30.5 L 532.5 180.5 L 82.5 180.5 L 82.5 30.5 Z"/></clipPath><clipPath id="FrHJvQqNERMf"><path fill="none" stroke="none" d="M 82.5 30.5 L 532.5 30.5 L 532.5 180.5 L 82.5 180.5 L 82.5 30.5 Z"/></clipPath><clipPath id="wPycAzDpWpFc"><path fill="none" stroke="none" d="M 82.5 30.5 L 532.5 30.5 L 532.5 180.5 L 82.5 180.5 L 82.5 30.5 Z"/></clipPath><clipPath id="rDTCkBHNLFfE"><path fill="none" stroke="none" d="M 82.5 30.5 L 532.5 30.5 L 532.5 180.5 L 82.5 180.5 L 82.5 30.5 Z"/></clipPath><clipPath id="EZOkFBpbprVF"><path fill="none" stroke="none" d="M 82.5 30.5 L 532.5 30.5 L 532.5 180.5 L 82.5 180.5 L 82.5 30.5 Z"/></clipPath></defs><path fill="#ffffff" stroke="none" paint-order="stroke" d="M 0.5 0.5 L 537.5 0.5 L 537.5 202.5 L 0.5 202.5 L 0.5 0.5 Z" clip-path="url(#mHNuQRPLZJcL)"/><path fill="#ffffff" stroke="none" paint-order="stroke" d="M 82.5 30.5 L 532.5 30.5 L 532.5 180.5 L 82.5 180.5 L 82.5 30.5 Z"/><path fill="none" stroke="#e5e5e5" paint-order="fill" d="M 82.5 30.5 L 532.5 30.5 L 532.5 180.5 L 82.5 180.5 L 82.5 30.5 Z" stroke-linejoin="bevel" stroke-miterlimit="10"/><path fill="none" stroke="#e5e5e5" paint-order="fill" d="M 147.5 180.5 L 147.5 30.5 M 219.5 180.5 L 219.5 30.5 M 290.5 180.5 L 290.5 30.5 M 362.5 180.5 L 362.5 30.5 M 434.5 180.5 L 434.5 30.5 M 506.5 180.5 L 506.5 30.5" stroke-linejoin="bevel" stroke-miterlimit="10" clip-path="url(#ARWUJTToBlVr)"/><path fill="none" stroke="#e5e5e5" paint-order="fill" d="M 82.5 155.5 L 532.5 155.5 M 82.5 105.5 L 532.5 105.5 M 82.5 55.5 L 532.5 55.5" stroke-linejoin="bevel" stroke-miterlimit="10" clip-path="url(#mJtkFbeMdgOt)"/><path fill="rgb(0,0,0)" stroke="rgb(0,0,0)" paint-order="fill" d="M 169.18289184570312 55.5 A 2.5 2.5 0 0 1 164.18289184570312 55.5 A 2.5 2.5 0 0 1 169.18289184570312 55.5" fill-opacity="1" clip-path="url(#dnkSfuacxZVw)" stroke-opacity="1" stroke-linejoin="bevel" stroke-miterlimit="10"/><path fill="none" stroke="#000000" paint-order="fill" d="M 102.95454406738281 55.5 L 232.09530639648438 55.5" stroke-linejoin="bevel" stroke-miterlimit="10" stroke-width="3" clip-path="url(#TWIbVhRMHVst)"/><path fill="rgb(136,179,180)" stroke="rgb(136,179,180)" paint-order="fill" d="M 423.6054992675781 105.5 A 2.5 2.5 0 0 1 418.6054992675781 105.5 A 2.5 2.5 0 0 1 423.6054992675781 105.5" fill-opacity="1" clip-path="url(#IHFTOKWfVCaM)" stroke-opacity="1" stroke-linejoin="bevel" stroke-miterlimit="10"/><path fill="none" stroke="#88B3B4" paint-order="fill" d="M 332.5870361328125 105.5 L 512.0454406738281 105.5" stroke-linejoin="bevel" stroke-miterlimit="10" stroke-width="3" clip-path="url(#FrHJvQqNERMf)"/><path fill="rgb(58,126,127)" stroke="rgb(58,126,127)" paint-order="fill" d="M 275.8771057128906 155.5 A 2.5 2.5 0 0 1 270.8771057128906 155.5 A 2.5 2.5 0 0 1 275.8771057128906 155.5" fill-opacity="1" clip-path="url(#wPycAzDpWpFc)" stroke-opacity="1" stroke-linejoin="bevel" stroke-miterlimit="10"/><path fill="none" stroke="#3A7E7F" paint-order="fill" d="M 212.0208740234375 155.5 L 334.3833923339844 155.5" stroke-linejoin="bevel" stroke-miterlimit="10" stroke-width="3" clip-path="url(#rDTCkBHNLFfE)"/><path fill="none" stroke="black" paint-order="fill" d="M 82.5 180.5 L 532.5 180.5" stroke-linejoin="bevel" stroke-miterlimit="10"/><path fill="none" stroke="black" paint-order="fill" d="M 147.5 186.5 L 147.5 178.5 M 219.5 186.5 L 219.5 178.5 M 290.5 186.5 L 290.5 178.5 M 362.5 186.5 L 362.5 178.5 M 434.5 186.5 L 434.5 178.5 M 506.5 186.5 L 506.5 178.5" stroke-linejoin="bevel" stroke-miterlimit="10"/><path fill="none" stroke="black" paint-order="fill" d="M 133.5 184.5 L 133.5 180.5 M 118.5 184.5 L 118.5 180.5 M 104.5 184.5 L 104.5 180.5 M 90.5 184.5 L 90.5 180.5 M 147.5 184.5 L 147.5 180.5 M 161.5 184.5 L 161.5 180.5 M 176.5 184.5 L 176.5 180.5 M 190.5 184.5 L 190.5 180.5 M 204.5 184.5 L 204.5 180.5 M 219.5 184.5 L 219.5 180.5 M 233.5 184.5 L 233.5 180.5 M 247.5 184.5 L 247.5 180.5 M 262.5 184.5 L 262.5 180.5 M 276.5 184.5 L 276.5 180.5 M 290.5 184.5 L 290.5 180.5 M 305.5 184.5 L 305.5 180.5 M 319.5 184.5 L 319.5 180.5 M 334.5 184.5 L 334.5 180.5 M 348.5 184.5 L 348.5 180.5 M 362.5 184.5 L 362.5 180.5 M 377.5 184.5 L 377.5 180.5 M 391.5 184.5 L 391.5 180.5 M 405.5 184.5 L 405.5 180.5 M 420.5 184.5 L 420.5 180.5 M 434.5 184.5 L 434.5 180.5 M 448.5 184.5 L 448.5 180.5 M 463.5 184.5 L 463.5 180.5 M 477.5 184.5 L 477.5 180.5 M 491.5 184.5 L 491.5 180.5 M 506.5 184.5 L 506.5 180.5 M 520.5 184.5 L 520.5 180.5" stroke-linejoin="bevel" stroke-miterlimit="10"/><text fill="#444444" stroke="none" font-family="helvetica" font-size="11px" font-style="normal" font-weight="normal" text-decoration="normal" x="139.34362363815308" y="198.89013671875" text-anchor="start" dominant-baseline="alphabetic" transform="matrix(1, 0, 0, 1, 0.5, 0.5)">0.4</text><text fill="none" stroke="rgb(0,0,0)" font-family="helvetica" font-size="11px" font-style="normal" font-weight="normal" text-decoration="normal" x="139.34362363815308" y="198.89013671875" text-anchor="start" dominant-baseline="alphabetic" transform="matrix(1, 0, 0, 1, 0.5, 0.5)" stroke-opacity="0" stroke-linejoin="bevel" stroke-miterlimit="10">0.4</text><text fill="#444444" stroke="none" font-family="helvetica" font-size="11px" font-style="normal" font-weight="normal" text-decoration="normal" x="211.089702129364" y="198.89013671875" text-anchor="start" dominant-baseline="alphabetic" transform="matrix(1, 0, 0, 1, 0.5, 0.5)">0.6</text><text fill="none" stroke="rgb(0,0,0)" font-family="helvetica" font-size="11px" font-style="normal" font-weight="normal" text-decoration="normal" x="211.089702129364" y="198.89013671875" text-anchor="start" dominant-baseline="alphabetic" transform="matrix(1, 0, 0, 1, 0.5, 0.5)" stroke-opacity="0" stroke-linejoin="bevel" stroke-miterlimit="10">0.6</text><text fill="#444444" stroke="none" font-family="helvetica" font-size="11px" font-style="normal" font-weight="normal" text-decoration="normal" x="282.83578062057495" y="198.89013671875" text-anchor="start" dominant-baseline="alphabetic" transform="matrix(1, 0, 0, 1, 0.5, 0.5)">0.8</text><text fill="none" stroke="rgb(0,0,0)" font-family="helvetica" font-size="11px" font-style="normal" font-weight="normal" text-decoration="normal" x="282.83578062057495" y="198.89013671875" text-anchor="start" dominant-baseline="alphabetic" transform="matrix(1, 0, 0, 1, 0.5, 0.5)" stroke-opacity="0" stroke-linejoin="bevel" stroke-miterlimit="10">0.8</text><text fill="#444444" stroke="none" font-family="helvetica" font-size="11px" font-style="normal" font-weight="normal" text-decoration="normal" x="359.1651773452759" y="198.89013671875" text-anchor="start" dominant-baseline="alphabetic" transform="matrix(1, 0, 0, 1, 0.5, 0.5)">1</text><text fill="none" stroke="rgb(0,0,0)" font-family="helvetica" font-size="11px" font-style="normal" font-weight="normal" text-decoration="normal" x="359.1651773452759" y="198.89013671875" text-anchor="start" dominant-baseline="alphabetic" transform="matrix(1, 0, 0, 1, 0.5, 0.5)" stroke-opacity="0" stroke-linejoin="bevel" stroke-miterlimit="10">1</text><text fill="#444444" stroke="none" font-family="helvetica" font-size="11px" font-style="normal" font-weight="normal" text-decoration="normal" x="426.3279376029968" y="198.89013671875" text-anchor="start" dominant-baseline="alphabetic" transform="matrix(1, 0, 0, 1, 0.5, 0.5)">1.2</text><text fill="none" stroke="rgb(0,0,0)" font-family="helvetica" font-size="11px" font-style="normal" font-weight="normal" text-decoration="normal" x="426.3279376029968" y="198.89013671875" text-anchor="start" dominant-baseline="alphabetic" transform="matrix(1, 0, 0, 1, 0.5, 0.5)" stroke-opacity="0" stroke-linejoin="bevel" stroke-miterlimit="10">1.2</text><text fill="#444444" stroke="none" font-family="helvetica" font-size="11px" font-style="normal" font-weight="normal" text-decoration="normal" x="498.0740008354187" y="198.89013671875" text-anchor="start" dominant-baseline="alphabetic" transform="matrix(1, 0, 0, 1, 0.5, 0.5)">1.4</text><text fill="none" stroke="rgb(0,0,0)" font-family="helvetica" font-size="11px" font-style="normal" font-weight="normal" text-decoration="normal" x="498.0740008354187" y="198.89013671875" text-anchor="start" dominant-baseline="alphabetic" transform="matrix(1, 0, 0, 1, 0.5, 0.5)" stroke-opacity="0" stroke-linejoin="bevel" stroke-miterlimit="10">1.4</text><path fill="none" stroke="black" paint-order="fill" d="M 82.5 180.5 L 82.5 30.5" stroke-linejoin="bevel" stroke-miterlimit="10"/><path fill="none" stroke="black" paint-order="fill" d="M 76.5 155.5 L 84.5 155.5 M 76.5 105.5 L 84.5 105.5 M 76.5 55.5 L 84.5 55.5" stroke-linejoin="bevel" stroke-miterlimit="10"/><path fill="none" stroke="black" paint-order="fill" d="" stroke-linejoin="bevel" stroke-miterlimit="10"/><text fill="#444444" stroke="none" font-family="helvetica" font-size="11px" font-style="normal" font-weight="normal" text-decoration="normal" x="2.5500030517578125" y="158" text-anchor="start" dominant-baseline="alphabetic" transform="matrix(1, 0, 0, 1, 0.5, 0.5)">ASO_SPF-bC</text><text fill="none" stroke="rgb(0,0,0)" font-family="helvetica" font-size="11px" font-style="normal" font-weight="normal" text-decoration="normal" x="2.5500030517578125" y="158" text-anchor="start" dominant-baseline="alphabetic" transform="matrix(1, 0, 0, 1, 0.5, 0.5)" stroke-opacity="0" stroke-linejoin="bevel" stroke-miterlimit="10">ASO_SPF-bC</text><text fill="#444444" stroke="none" font-family="helvetica" font-size="11px" font-style="normal" font-weight="normal" text-decoration="normal" x="20.28333282470703" y="108" text-anchor="start" dominant-baseline="alphabetic" transform="matrix(1, 0, 0, 1, 0.5, 0.5)">ASO_SPF</text><text fill="none" stroke="rgb(0,0,0)" font-family="helvetica" font-size="11px" font-style="normal" font-weight="normal" text-decoration="normal" x="20.28333282470703" y="108" text-anchor="start" dominant-baseline="alphabetic" transform="matrix(1, 0, 0, 1, 0.5, 0.5)" stroke-opacity="0" stroke-linejoin="bevel" stroke-miterlimit="10">ASO_SPF</text><text fill="#444444" stroke="none" font-family="helvetica" font-size="11px" font-style="normal" font-weight="normal" text-decoration="normal" x="26.400001525878906" y="58" text-anchor="start" dominant-baseline="alphabetic" transform="matrix(1, 0, 0, 1, 0.5, 0.5)">WT_SPF</text><text fill="none" stroke="rgb(0,0,0)" font-family="helvetica" font-size="11px" font-style="normal" font-weight="normal" text-decoration="normal" x="26.400001525878906" y="58" text-anchor="start" dominant-baseline="alphabetic" transform="matrix(1, 0, 0, 1, 0.5, 0.5)" stroke-opacity="0" stroke-linejoin="bevel" stroke-miterlimit="10">WT_SPF</text><text fill="#444444" stroke="none" font-family="helvetica" font-size="13px" font-style="normal" font-weight="bold" text-decoration="normal" x="0" y="11" text-anchor="start" dominant-baseline="alphabetic" transform="matrix(1, 0, 0, 1, 82.5, 7.5)">mu 95%CI, lognormal model</text><text fill="none" stroke="rgb(0,0,0)" font-family="helvetica" font-size="13px" font-style="normal" font-weight="bold" text-decoration="normal" x="0" y="11" text-anchor="start" dominant-baseline="alphabetic" transform="matrix(1, 0, 0, 1, 82.5, 7.5)" stroke-opacity="0" stroke-miterlimit="10" stroke-dasharray="">mu 95%CI, lognormal model</text></svg>