<svg version="1.1" xmlns="http://www.w3.org/2000/svg" width="537" height="202"><defs><clipPath id="lLTccWTMARct"><path fill="none" stroke="none" d="M 0.5 0.5 L 537.5 0.5 L 537.5 202.5 L 0.5 202.5 L 0.5 0.5 Z M 82.5 30.5 L 532.5 30.5 L 532.5 180.5 L 82.5 180.5 L 82.5 30.5 Z" clip-rule="evenodd"/></clipPath><clipPath id="DWihnhsVTGEn"><path fill="none" stroke="none" d="M 82.5 30.5 L 532.5 30.5 L 532.5 180.5 L 82.5 180.5 L 82.5 30.5 Z"/></clipPath><clipPath id="HMozidEUeIbx"><path fill="none" stroke="none" d="M 82.5 30.5 L 532.5 30.5 L 532.5 180.5 L 82.5 180.5 L 82.5 30.5 Z"/></clipPath><clipPath id="fZChVnNWETbU"><path fill="none" stroke="none" d="M 82.5 30.5 L 532.5 30.5 L 532.5 180.5 L 82.5 180.5 L 82.5 30.5 Z"/></clipPath><clipPath id="ioJUnWDuVJoT"><path fill="none" stroke="none" d="M 82.5 30.5 L 532.5 30.5 L 532.5 180.5 L 82.5 180.5 L 82.5 30.5 Z"/></clipPath><clipPath id="RpwIcTOUAalb"><path fill="none" stroke="none" d="M 82.5 30.5 L 532.5 30.5 L 532.5 180.5 L 82.5 180.5 L 82.5 30.5 Z"/></clipPath><clipPath id="wTXQEpJDdfcW"><path fill="none" stroke="none" d="M 82.5 30.5 L 532.5 30.5 L 532.5 180.5 L 82.5 180.5 L 82.5 30.5 Z"/></clipPath><clipPath id="ksNpRtTNhwDT"><path fill="none" stroke="none" d="M 82.5 30.5 L 532.5 30.5 L 532.5 180.5 L 82.5 180.5 L 82.5 30.5 Z"/></clipPath><clipPath id="TvZDhlHmiMkS"><path fill="none" stroke="none" d="M 82.5 30.5 L 532.5 30.5 L 532.5 180.5 L 82.5 180.5 L 82.5 30.5 Z"/></clipPath><clipPath id="yTUTmqOckDTT"><path fill="none" stroke="none" d="M 82.5 30.5 L 532.5 30.5 L 532.5 180.5 L 82.5 180.5 L 82.5 30.5 Z"/></clipPath></defs><path fill="#ffffff" stroke="none" paint-order="stroke" d="M 0.5 0.5 L 537.5 0.5 L 537.5 202.5 L 0.5 202.5 L 0.5 0.5 Z" clip-path="url(#lLTccWTMARct)"/><path fill="#ffffff" stroke="none" paint-order="stroke" d="M 82.5 30.5 L 532.5 30.5 L 532.5 180.5 L 82.5 180.5 L 82.5 30.5 Z"/><path fill="none" stroke="#e5e5e5" paint-order="fill" d="M 82.5 30.5 L 532.5 30.5 L 532.5 180.5 L 82.5 180.5 L 82.5 30.5 Z" stroke-linejoin="bevel" stroke-miterlimit="10"/><path fill="none" stroke="#e5e5e5" paint-order="fill" d="M 121.5 180.5 L 121.5 30.5 M 196.5 180.5 L 196.5 30.5 M 271.5 180.5 L 271.5 30.5 M 346.5 180.5 L 346.5 30.5 M 421.5 180.5 L 421.5 30.5 M 496.5 180.5 L 496.5 30.5" stroke-linejoin="bevel" stroke-miterlimit="10" clip-path="url(#DWihnhsVTGEn)"/><path fill="none" stroke="#e5e5e5" paint-order="fill" d="M 82.5 155.5 L 532.5 155.5 M 82.5 105.5 L 532.5 105.5 M 82.5 55.5 L 532.5 55.5" stroke-linejoin="bevel" stroke-miterlimit="10" clip-path="url(#HMozidEUeIbx)"/><path fill="rgb(0,0,0)" stroke="rgb(0,0,0)" paint-order="fill" d="M 171.7977294921875 55.5 A 2.5 2.5 0 0 1 166.7977294921875 55.5 A 2.5 2.5 0 0 1 171.7977294921875 55.5" fill-opacity="1" clip-path="url(#fZChVnNWETbU)" stroke-opacity="1" stroke-linejoin="bevel" stroke-miterlimit="10"/><path fill="none" stroke="#000000" paint-order="fill" d="M 102.95454406738281 55.5 L 230.3608856201172 55.5" stroke-linejoin="bevel" stroke-miterlimit="10" stroke-width="3" clip-path="url(#ioJUnWDuVJoT)"/><path fill="rgb(136,179,180)" stroke="rgb(136,179,180)" paint-order="fill" d="M 428.7225646972656 105.5 A 2.5 2.5 0 0 1 423.7225646972656 105.5 A 2.5 2.5 0 0 1 428.7225646972656 105.5" fill-opacity="1" clip-path="url(#RpwIcTOUAalb)" stroke-opacity="1" stroke-linejoin="bevel" stroke-miterlimit="10"/><path fill="none" stroke="#88B3B4" paint-order="fill" d="M 342.8916320800781 105.5 L 510.1949768066406 105.5" stroke-linejoin="bevel" stroke-miterlimit="10" stroke-width="3" clip-path="url(#wTXQEpJDdfcW)"/><path fill="rgb(58,126,127)" stroke="rgb(58,126,127)" paint-order="fill" d="M 450.6576843261719 155.5 A 2.5 2.5 0 0 1 445.6576843261719 155.5 A 2.5 2.5 0 0 1 450.6576843261719 155.5" fill-opacity="1" clip-path="url(#ksNpRtTNhwDT)" stroke-opacity="1" stroke-linejoin="bevel" stroke-miterlimit="10"/><path fill="none" stroke="#3A7E7F" paint-order="fill" d="M 383.3026428222656 155.5 L 512.0454406738281 155.5" stroke-linejoin="bevel" stroke-miterlimit="10" stroke-width="3" clip-path="url(#TvZDhlHmiMkS)"/><path fill="none" stroke="black" paint-order="fill" d="M 82.5 180.5 L 532.5 180.5" stroke-linejoin="bevel" stroke-miterlimit="10"/><path fill="none" stroke="black" paint-order="fill" d="M 121.5 186.5 L 121.5 178.5 M 196.5 186.5 L 196.5 178.5 M 271.5 186.5 L 271.5 178.5 M 346.5 186.5 L 346.5 178.5 M 421.5 186.5 L 421.5 178.5 M 496.5 186.5 L 496.5 178.5" stroke-linejoin="bevel" stroke-miterlimit="10"/><path fill="none" stroke="black" paint-order="fill" d="M 106.5 184.5 L 106.5 180.5 M 91.5 184.5 L 91.5 180.5 M 121.5 184.5 L 121.5 180.5 M 136.5 184.5 L 136.5 180.5 M 151.5 184.5 L 151.5 180.5 M 166.5 184.5 L 166.5 180.5 M 181.5 184.5 L 181.5 180.5 M 196.5 184.5 L 196.5 180.5 M 211.5 184.5 L 211.5 180.5 M 226.5 184.5 L 226.5 180.5 M 241.5 184.5 L 241.5 180.5 M 256.5 184.5 L 256.5 180.5 M 271.5 184.5 L 271.5 180.5 M 286.5 184.5 L 286.5 180.5 M 301.5 184.5 L 301.5 180.5 M 316.5 184.5 L 316.5 180.5 M 331.5 184.5 L 331.5 180.5 M 346.5 184.5 L 346.5 180.5 M 361.5 184.5 L 361.5 180.5 M 376.5 184.5 L 376.5 180.5 M 391.5 184.5 L 391.5 180.5 M 406.5 184.5 L 406.5 180.5 M 421.5 184.5 L 421.5 180.5 M 436.5 184.5 L 436.5 180.5 M 451.5 184.5 L 451.5 180.5 M 466.5 184.5 L 466.5 180.5 M 481.5 184.5 L 481.5 180.5 M 496.5 184.5 L 496.5 180.5 M 511.5 184.5 L 511.5 180.5 M 526.5 184.5 L 526.5 180.5" stroke-linejoin="bevel" stroke-miterlimit="10"/><text fill="#444444" stroke="none" font-family="helvetica" font-size="11px" font-style="normal" font-weight="normal" text-decoration="normal" x="113.13231229782104" y="198.89013671875" text-anchor="start" dominant-baseline="alphabetic" transform="matrix(1, 0, 0, 1, 0.5, 0.5)">1.2</text><text fill="none" stroke="rgb(0,0,0)" font-family="helvetica" font-size="11px" font-style="normal" font-weight="normal" text-decoration="normal" x="113.13231229782104" y="198.89013671875" text-anchor="start" dominant-baseline="alphabetic" transform="matrix(1, 0, 0, 1, 0.5, 0.5)" stroke-opacity="0" stroke-linejoin="bevel" stroke-miterlimit="10">1.2</text><text fill="#444444" stroke="none" font-family="helvetica" font-size="11px" font-style="normal" font-weight="normal" text-decoration="normal" x="188.184184551239" y="198.89013671875" text-anchor="start" dominant-baseline="alphabetic" transform="matrix(1, 0, 0, 1, 0.5, 0.5)">1.4</text><text fill="none" stroke="rgb(0,0,0)" font-family="helvetica" font-size="11px" font-style="normal" font-weight="normal" text-decoration="normal" x="188.184184551239" y="198.89013671875" text-anchor="start" dominant-baseline="alphabetic" transform="matrix(1, 0, 0, 1, 0.5, 0.5)" stroke-opacity="0" stroke-linejoin="bevel" stroke-miterlimit="10">1.4</text><text fill="#444444" stroke="none" font-family="helvetica" font-size="11px" font-style="normal" font-weight="normal" text-decoration="normal" x="263.23604917526245" y="198.89013671875" text-anchor="start" dominant-baseline="alphabetic" transform="matrix(1, 0, 0, 1, 0.5, 0.5)">1.6</text><text fill="none" stroke="rgb(0,0,0)" font-family="helvetica" font-size="11px" font-style="normal" font-weight="normal" text-decoration="normal" x="263.23604917526245" y="198.89013671875" text-anchor="start" dominant-baseline="alphabetic" transform="matrix(1, 0, 0, 1, 0.5, 0.5)" stroke-opacity="0" stroke-linejoin="bevel" stroke-miterlimit="10">1.6</text><text fill="#444444" stroke="none" font-family="helvetica" font-size="11px" font-style="normal" font-weight="normal" text-decoration="normal" x="338.28792905807495" y="198.89013671875" text-anchor="start" dominant-baseline="alphabetic" transform="matrix(1, 0, 0, 1, 0.5, 0.5)">1.8</text><text fill="none" stroke="rgb(0,0,0)" font-family="helvetica" font-size="11px" font-style="normal" font-weight="normal" text-decoration="normal" x="338.28792905807495" y="198.89013671875" text-anchor="start" dominant-baseline="alphabetic" transform="matrix(1, 0, 0, 1, 0.5, 0.5)" stroke-opacity="0" stroke-linejoin="bevel" stroke-miterlimit="10">1.8</text><text fill="#444444" stroke="none" font-family="helvetica" font-size="11px" font-style="normal" font-weight="normal" text-decoration="normal" x="417.9231119155884" y="198.89013671875" text-anchor="start" dominant-baseline="alphabetic" transform="matrix(1, 0, 0, 1, 0.5, 0.5)">2</text><text fill="none" stroke="rgb(0,0,0)" font-family="helvetica" font-size="11px" font-style="normal" font-weight="normal" text-decoration="normal" x="417.9231119155884" y="198.89013671875" text-anchor="start" dominant-baseline="alphabetic" transform="matrix(1, 0, 0, 1, 0.5, 0.5)" stroke-opacity="0" stroke-linejoin="bevel" stroke-miterlimit="10">2</text><text fill="#444444" stroke="none" font-family="helvetica" font-size="11px" font-style="normal" font-weight="normal" text-decoration="normal" x="488.3916583061218" y="198.89013671875" text-anchor="start" dominant-baseline="alphabetic" transform="matrix(1, 0, 0, 1, 0.5, 0.5)">2.2</text><text fill="none" stroke="rgb(0,0,0)" font-family="helvetica" font-size="11px" font-style="normal" font-weight="normal" text-decoration="normal" x="488.3916583061218" y="198.89013671875" text-anchor="start" dominant-baseline="alphabetic" transform="matrix(1, 0, 0, 1, 0.5, 0.5)" stroke-opacity="0" stroke-linejoin="bevel" stroke-miterlimit="10">2.2</text><path fill="none" stroke="black" paint-order="fill" d="M 82.5 180.5 L 82.5 30.5" stroke-linejoin="bevel" stroke-miterlimit="10"/><path fill="none" stroke="black" paint-order="fill" d="M 76.5 155.5 L 84.5 155.5 M 76.5 105.5 L 84.5 105.5 M 76.5 55.5 L 84.5 55.5" stroke-linejoin="bevel" stroke-miterlimit="10"/><path fill="none" stroke="black" paint-order="fill" d="" stroke-linejoin="bevel" stroke-miterlimit="10"/><text fill="#444444" stroke="none" font-family="helvetica" font-size="11px" font-style="normal" font-weight="normal" text-decoration="normal" x="2.5500030517578125" y="158" text-anchor="start" dominant-baseline="alphabetic" transform="matrix(1, 0, 0, 1, 0.5, 0.5)">ASO_SPF-bC</text><text fill="none" stroke="rgb(0,0,0)" font-family="helvetica" font-size="11px" font-style="normal" font-weight="normal" text-decoration="normal" x="2.5500030517578125" y="158" text-anchor="start" dominant-baseline="alphabetic" transform="matrix(1, 0, 0, 1, 0.5, 0.5)" stroke-opacity="0" stroke-linejoin="bevel" stroke-miterlimit="10">ASO_SPF-bC</text><text fill="#444444" stroke="none" font-family="helvetica" font-size="11px" font-style="normal" font-weight="normal" text-decoration="normal" x="20.28333282470703" y="108" text-anchor="start" dominant-baseline="alphabetic" transform="matrix(1, 0, 0, 1, 0.5, 0.5)">ASO_SPF</text><text fill="none" stroke="rgb(0,0,0)" font-family="helvetica" font-size="11px" font-style="normal" font-weight="normal" text-decoration="normal" x="20.28333282470703" y="108" text-anchor="start" dominant-baseline="alphabetic" transform="matrix(1, 0, 0, 1, 0.5, 0.5)" stroke-opacity="0" stroke-linejoin="bevel" stroke-miterlimit="10">ASO_SPF</text><text fill="#444444" stroke="none" font-family="helvetica" font-size="11px" font-style="normal" font-weight="normal" text-decoration="normal" x="26.400001525878906" y="58" text-anchor="start" dominant-baseline="alphabetic" transform="matrix(1, 0, 0, 1, 0.5, 0.5)">WT_SPF</text><text fill="none" stroke="rgb(0,0,0)" font-family="helvetica" font-size="11px" font-style="normal" font-weight="normal" text-decoration="normal" x="26.400001525878906" y="58" text-anchor="start" dominant-baseline="alphabetic" transform="matrix(1, 0, 0, 1, 0.5, 0.5)" stroke-opacity="0" stroke-linejoin="bevel" stroke-miterlimit="10">WT_SPF</text><text fill="#444444" stroke="none" font-family="helvetica" font-size="13px" font-style="normal" font-weight="bold" text-decoration="normal" x="0" y="11" text-anchor="start" dominant-baseline="alphabetic" transform="matrix(1, 0, 0, 1, 82.5, 7.5)">mu 95%CI, lognormal model</text><text fill="none" stroke="rgb(0,0,0)" font-family="helvetica" font-size="13px" font-style="normal" font-weight="bold" text-decoration="normal" x="0" y="11" text-anchor="start" dominant-baseline="alphabetic" transform="matrix(1, 0, 0, 1, 82.5, 7.5)" stroke-opacity="0" stroke-miterlimit="10" stroke-dasharray="">mu 95%CI, lognormal model</text></svg>