<svg version="1.1" xmlns="http://www.w3.org/2000/svg" width="537" height="202"><defs><clipPath id="nIBFNwugfcqN"><path fill="none" stroke="none" d="M 0.5 0.5 L 537.5 0.5 L 537.5 202.5 L 0.5 202.5 L 0.5 0.5 Z M 82.5 30.5 L 532.5 30.5 L 532.5 180.5 L 82.5 180.5 L 82.5 30.5 Z" clip-rule="evenodd"/></clipPath><clipPath id="fpobptmsPTgx"><path fill="none" stroke="none" d="M 82.5 30.5 L 532.5 30.5 L 532.5 180.5 L 82.5 180.5 L 82.5 30.5 Z"/></clipPath><clipPath id="iEqeLRhDNTdB"><path fill="none" stroke="none" d="M 82.5 30.5 L 532.5 30.5 L 532.5 180.5 L 82.5 180.5 L 82.5 30.5 Z"/></clipPath><clipPath id="RTCXQkaAabMD"><path fill="none" stroke="none" d="M 82.5 30.5 L 532.5 30.5 L 532.5 180.5 L 82.5 180.5 L 82.5 30.5 Z"/></clipPath><clipPath id="MeRQVtBMmyZb"><path fill="none" stroke="none" d="M 82.5 30.5 L 532.5 30.5 L 532.5 180.5 L 82.5 180.5 L 82.5 30.5 Z"/></clipPath><clipPath id="UetoTfJOZmfn"><path fill="none" stroke="none" d="M 82.5 30.5 L 532.5 30.5 L 532.5 180.5 L 82.5 180.5 L 82.5 30.5 Z"/></clipPath><clipPath id="TWEdSwmmcHLT"><path fill="none" stroke="none" d="M 82.5 30.5 L 532.5 30.5 L 532.5 180.5 L 82.5 180.5 L 82.5 30.5 Z"/></clipPath><clipPath id="ngOWwkOidzDs"><path fill="none" stroke="none" d="M 82.5 30.5 L 532.5 30.5 L 532.5 180.5 L 82.5 180.5 L 82.5 30.5 Z"/></clipPath><clipPath id="MLCwcoZzaWNy"><path fill="none" stroke="none" d="M 82.5 30.5 L 532.5 30.5 L 532.5 180.5 L 82.5 180.5 L 82.5 30.5 Z"/></clipPath><clipPath id="bAzDoZMCQCBe"><path fill="none" stroke="none" d="M 82.5 30.5 L 532.5 30.5 L 532.5 180.5 L 82.5 180.5 L 82.5 30.5 Z"/></clipPath></defs><path fill="#ffffff" stroke="none" paint-order="stroke" d="M 0.5 0.5 L 537.5 0.5 L 537.5 202.5 L 0.5 202.5 L 0.5 0.5 Z" clip-path="url(#nIBFNwugfcqN)"/><path fill="#ffffff" stroke="none" paint-order="stroke" d="M 82.5 30.5 L 532.5 30.5 L 532.5 180.5 L 82.5 180.5 L 82.5 30.5 Z"/><path fill="none" stroke="#e5e5e5" paint-order="fill" d="M 82.5 30.5 L 532.5 30.5 L 532.5 180.5 L 82.5 180.5 L 82.5 30.5 Z" stroke-linejoin="bevel" stroke-miterlimit="10"/><path fill="none" stroke="#e5e5e5" paint-order="fill" d="M 95.5 180.5 L 95.5 30.5 M 191.5 180.5 L 191.5 30.5 M 288.5 180.5 L 288.5 30.5 M 384.5 180.5 L 384.5 30.5 M 480.5 180.5 L 480.5 30.5" stroke-linejoin="bevel" stroke-miterlimit="10" clip-path="url(#fpobptmsPTgx)"/><path fill="none" stroke="#e5e5e5" paint-order="fill" d="M 82.5 155.5 L 532.5 155.5 M 82.5 105.5 L 532.5 105.5 M 82.5 55.5 L 532.5 55.5" stroke-linejoin="bevel" stroke-miterlimit="10" clip-path="url(#iEqeLRhDNTdB)"/><path fill="rgb(0,0,0)" stroke="rgb(0,0,0)" paint-order="fill" d="M 173.82376098632812 55.5 A 2.5 2.5 0 0 1 168.82376098632812 55.5 A 2.5 2.5 0 0 1 173.82376098632812 55.5" fill-opacity="1" clip-path="url(#RTCXQkaAabMD)" stroke-opacity="1" stroke-linejoin="bevel" stroke-miterlimit="10"/><path fill="none" stroke="#000000" paint-order="fill" d="M 102.95454406738281 55.5 L 240.21343994140625 55.5" stroke-linejoin="bevel" stroke-miterlimit="10" stroke-width="3" clip-path="url(#MeRQVtBMmyZb)"/><path fill="rgb(136,179,180)" stroke="rgb(136,179,180)" paint-order="fill" d="M 387.3785400390625 105.5 A 2.5 2.5 0 0 1 382.3785400390625 105.5 A 2.5 2.5 0 0 1 387.3785400390625 105.5" fill-opacity="1" clip-path="url(#UetoTfJOZmfn)" stroke-opacity="1" stroke-linejoin="bevel" stroke-miterlimit="10"/><path fill="none" stroke="#88B3B4" paint-order="fill" d="M 262.4958190917969 105.5 L 512.0454406738281 105.5" stroke-linejoin="bevel" stroke-miterlimit="10" stroke-width="3" clip-path="url(#TWEdSwmmcHLT)"/><path fill="rgb(58,126,127)" stroke="rgb(58,126,127)" paint-order="fill" d="M 270.6418151855469 155.5 A 2.5 2.5 0 0 1 265.6418151855469 155.5 A 2.5 2.5 0 0 1 270.6418151855469 155.5" fill-opacity="1" clip-path="url(#ngOWwkOidzDs)" stroke-opacity="1" stroke-linejoin="bevel" stroke-miterlimit="10"/><path fill="none" stroke="#3A7E7F" paint-order="fill" d="M 156.4276580810547 155.5 L 372.7696533203125 155.5" stroke-linejoin="bevel" stroke-miterlimit="10" stroke-width="3" clip-path="url(#MLCwcoZzaWNy)"/><path fill="none" stroke="black" paint-order="fill" d="M 82.5 180.5 L 532.5 180.5" stroke-linejoin="bevel" stroke-miterlimit="10"/><path fill="none" stroke="black" paint-order="fill" d="M 95.5 186.5 L 95.5 178.5 M 191.5 186.5 L 191.5 178.5 M 288.5 186.5 L 288.5 178.5 M 384.5 186.5 L 384.5 178.5 M 480.5 186.5 L 480.5 178.5" stroke-linejoin="bevel" stroke-miterlimit="10"/><path fill="none" stroke="black" paint-order="fill" d="M 95.5 184.5 L 95.5 180.5 M 114.5 184.5 L 114.5 180.5 M 133.5 184.5 L 133.5 180.5 M 153.5 184.5 L 153.5 180.5 M 172.5 184.5 L 172.5 180.5 M 191.5 184.5 L 191.5 180.5 M 210.5 184.5 L 210.5 180.5 M 230.5 184.5 L 230.5 180.5 M 249.5 184.5 L 249.5 180.5 M 268.5 184.5 L 268.5 180.5 M 288.5 184.5 L 288.5 180.5 M 307.5 184.5 L 307.5 180.5 M 326.5 184.5 L 326.5 180.5 M 345.5 184.5 L 345.5 180.5 M 365.5 184.5 L 365.5 180.5 M 384.5 184.5 L 384.5 180.5 M 403.5 184.5 L 403.5 180.5 M 422.5 184.5 L 422.5 180.5 M 442.5 184.5 L 442.5 180.5 M 461.5 184.5 L 461.5 180.5 M 480.5 184.5 L 480.5 180.5 M 499.5 184.5 L 499.5 180.5 M 519.5 184.5 L 519.5 180.5" stroke-linejoin="bevel" stroke-miterlimit="10"/><text fill="#444444" stroke="none" font-family="helvetica" font-size="11px" font-style="normal" font-weight="normal" text-decoration="normal" x="87.16803312301636" y="198.89013671875" text-anchor="start" dominant-baseline="alphabetic" transform="matrix(1, 0, 0, 1, 0.5, 0.5)">1.6</text><text fill="none" stroke="rgb(0,0,0)" font-family="helvetica" font-size="11px" font-style="normal" font-weight="normal" text-decoration="normal" x="87.16803312301636" y="198.89013671875" text-anchor="start" dominant-baseline="alphabetic" transform="matrix(1, 0, 0, 1, 0.5, 0.5)" stroke-opacity="0" stroke-linejoin="bevel" stroke-miterlimit="10">1.6</text><text fill="#444444" stroke="none" font-family="helvetica" font-size="11px" font-style="normal" font-weight="normal" text-decoration="normal" x="183.52222776412964" y="198.89013671875" text-anchor="start" dominant-baseline="alphabetic" transform="matrix(1, 0, 0, 1, 0.5, 0.5)">1.8</text><text fill="none" stroke="rgb(0,0,0)" font-family="helvetica" font-size="11px" font-style="normal" font-weight="normal" text-decoration="normal" x="183.52222776412964" y="198.89013671875" text-anchor="start" dominant-baseline="alphabetic" transform="matrix(1, 0, 0, 1, 0.5, 0.5)" stroke-opacity="0" stroke-linejoin="bevel" stroke-miterlimit="10">1.8</text><text fill="#444444" stroke="none" font-family="helvetica" font-size="11px" font-style="normal" font-weight="normal" text-decoration="normal" x="284.4597635269165" y="198.89013671875" text-anchor="start" dominant-baseline="alphabetic" transform="matrix(1, 0, 0, 1, 0.5, 0.5)">2</text><text fill="none" stroke="rgb(0,0,0)" font-family="helvetica" font-size="11px" font-style="normal" font-weight="normal" text-decoration="normal" x="284.4597635269165" y="198.89013671875" text-anchor="start" dominant-baseline="alphabetic" transform="matrix(1, 0, 0, 1, 0.5, 0.5)" stroke-opacity="0" stroke-linejoin="bevel" stroke-miterlimit="10">2</text><text fill="#444444" stroke="none" font-family="helvetica" font-size="11px" font-style="normal" font-weight="normal" text-decoration="normal" x="376.2306170463562" y="198.89013671875" text-anchor="start" dominant-baseline="alphabetic" transform="matrix(1, 0, 0, 1, 0.5, 0.5)">2.2</text><text fill="none" stroke="rgb(0,0,0)" font-family="helvetica" font-size="11px" font-style="normal" font-weight="normal" text-decoration="normal" x="376.2306170463562" y="198.89013671875" text-anchor="start" dominant-baseline="alphabetic" transform="matrix(1, 0, 0, 1, 0.5, 0.5)" stroke-opacity="0" stroke-linejoin="bevel" stroke-miterlimit="10">2.2</text><text fill="#444444" stroke="none" font-family="helvetica" font-size="11px" font-style="normal" font-weight="normal" text-decoration="normal" x="472.58480405807495" y="198.89013671875" text-anchor="start" dominant-baseline="alphabetic" transform="matrix(1, 0, 0, 1, 0.5, 0.5)">2.4</text><text fill="none" stroke="rgb(0,0,0)" font-family="helvetica" font-size="11px" font-style="normal" font-weight="normal" text-decoration="normal" x="472.58480405807495" y="198.89013671875" text-anchor="start" dominant-baseline="alphabetic" transform="matrix(1, 0, 0, 1, 0.5, 0.5)" stroke-opacity="0" stroke-linejoin="bevel" stroke-miterlimit="10">2.4</text><path fill="none" stroke="black" paint-order="fill" d="M 82.5 180.5 L 82.5 30.5" stroke-linejoin="bevel" stroke-miterlimit="10"/><path fill="none" stroke="black" paint-order="fill" d="M 76.5 155.5 L 84.5 155.5 M 76.5 105.5 L 84.5 105.5 M 76.5 55.5 L 84.5 55.5" stroke-linejoin="bevel" stroke-miterlimit="10"/><path fill="none" stroke="black" paint-order="fill" d="" stroke-linejoin="bevel" stroke-miterlimit="10"/><text fill="#444444" stroke="none" font-family="helvetica" font-size="11px" font-style="normal" font-weight="normal" text-decoration="normal" x="2.5500030517578125" y="158" text-anchor="start" dominant-baseline="alphabetic" transform="matrix(1, 0, 0, 1, 0.5, 0.5)">ASO_SPF-bC</text><text fill="none" stroke="rgb(0,0,0)" font-family="helvetica" font-size="11px" font-style="normal" font-weight="normal" text-decoration="normal" x="2.5500030517578125" y="158" text-anchor="start" dominant-baseline="alphabetic" transform="matrix(1, 0, 0, 1, 0.5, 0.5)" stroke-opacity="0" stroke-linejoin="bevel" stroke-miterlimit="10">ASO_SPF-bC</text><text fill="#444444" stroke="none" font-family="helvetica" font-size="11px" font-style="normal" font-weight="normal" text-decoration="normal" x="20.28333282470703" y="108" text-anchor="start" dominant-baseline="alphabetic" transform="matrix(1, 0, 0, 1, 0.5, 0.5)">ASO_SPF</text><text fill="none" stroke="rgb(0,0,0)" font-family="helvetica" font-size="11px" font-style="normal" font-weight="normal" text-decoration="normal" x="20.28333282470703" y="108" text-anchor="start" dominant-baseline="alphabetic" transform="matrix(1, 0, 0, 1, 0.5, 0.5)" stroke-opacity="0" stroke-linejoin="bevel" stroke-miterlimit="10">ASO_SPF</text><text fill="#444444" stroke="none" font-family="helvetica" font-size="11px" font-style="normal" font-weight="normal" text-decoration="normal" x="26.400001525878906" y="58" text-anchor="start" dominant-baseline="alphabetic" transform="matrix(1, 0, 0, 1, 0.5, 0.5)">WT_SPF</text><text fill="none" stroke="rgb(0,0,0)" font-family="helvetica" font-size="11px" font-style="normal" font-weight="normal" text-decoration="normal" x="26.400001525878906" y="58" text-anchor="start" dominant-baseline="alphabetic" transform="matrix(1, 0, 0, 1, 0.5, 0.5)" stroke-opacity="0" stroke-linejoin="bevel" stroke-miterlimit="10">WT_SPF</text><text fill="#444444" stroke="none" font-family="helvetica" font-size="13px" font-style="normal" font-weight="bold" text-decoration="normal" x="0" y="11" text-anchor="start" dominant-baseline="alphabetic" transform="matrix(1, 0, 0, 1, 82.5, 7.5)">mu 95%CI, lognormal model</text><text fill="none" stroke="rgb(0,0,0)" font-family="helvetica" font-size="13px" font-style="normal" font-weight="bold" text-decoration="normal" x="0" y="11" text-anchor="start" dominant-baseline="alphabetic" transform="matrix(1, 0, 0, 1, 82.5, 7.5)" stroke-opacity="0" stroke-miterlimit="10" stroke-dasharray="">mu 95%CI, lognormal model</text></svg>