<svg version="1.1" xmlns="http://www.w3.org/2000/svg" width="537" height="202"><defs><clipPath id="RTzolVCKydhm"><path fill="none" stroke="none" d="M 0.5 0.5 L 537.5 0.5 L 537.5 202.5 L 0.5 202.5 L 0.5 0.5 Z M 82.5 30.5 L 532.5 30.5 L 532.5 180.5 L 82.5 180.5 L 82.5 30.5 Z" clip-rule="evenodd"/></clipPath><clipPath id="KNoPRpvZOtPx"><path fill="none" stroke="none" d="M 82.5 30.5 L 532.5 30.5 L 532.5 180.5 L 82.5 180.5 L 82.5 30.5 Z"/></clipPath><clipPath id="yOMTzEnROKpB"><path fill="none" stroke="none" d="M 82.5 30.5 L 532.5 30.5 L 532.5 180.5 L 82.5 180.5 L 82.5 30.5 Z"/></clipPath><clipPath id="IdBstlFHsPpk"><path fill="none" stroke="none" d="M 82.5 30.5 L 532.5 30.5 L 532.5 180.5 L 82.5 180.5 L 82.5 30.5 Z"/></clipPath><clipPath id="UnveBoPFfQKB"><path fill="none" stroke="none" d="M 82.5 30.5 L 532.5 30.5 L 532.5 180.5 L 82.5 180.5 L 82.5 30.5 Z"/></clipPath><clipPath id="TPxikJmmLpdt"><path fill="none" stroke="none" d="M 82.5 30.5 L 532.5 30.5 L 532.5 180.5 L 82.5 180.5 L 82.5 30.5 Z"/></clipPath><clipPath id="lzJsvBwueZoL"><path fill="none" stroke="none" d="M 82.5 30.5 L 532.5 30.5 L 532.5 180.5 L 82.5 180.5 L 82.5 30.5 Z"/></clipPath><clipPath id="oHPiKUWGCHZl"><path fill="none" stroke="none" d="M 82.5 30.5 L 532.5 30.5 L 532.5 180.5 L 82.5 180.5 L 82.5 30.5 Z"/></clipPath><clipPath id="iXBCaEefcudU"><path fill="none" stroke="none" d="M 82.5 30.5 L 532.5 30.5 L 532.5 180.5 L 82.5 180.5 L 82.5 30.5 Z"/></clipPath><clipPath id="GmFDhZTrhOEA"><path fill="none" stroke="none" d="M 82.5 30.5 L 532.5 30.5 L 532.5 180.5 L 82.5 180.5 L 82.5 30.5 Z"/></clipPath></defs><path fill="#ffffff" stroke="none" paint-order="stroke" d="M 0.5 0.5 L 537.5 0.5 L 537.5 202.5 L 0.5 202.5 L 0.5 0.5 Z" clip-path="url(#RTzolVCKydhm)"/><path fill="#ffffff" stroke="none" paint-order="stroke" d="M 82.5 30.5 L 532.5 30.5 L 532.5 180.5 L 82.5 180.5 L 82.5 30.5 Z"/><path fill="none" stroke="#e5e5e5" paint-order="fill" d="M 82.5 30.5 L 532.5 30.5 L 532.5 180.5 L 82.5 180.5 L 82.5 30.5 Z" stroke-linejoin="bevel" stroke-miterlimit="10"/><path fill="none" stroke="#e5e5e5" paint-order="fill" d="M 88.5 180.5 L 88.5 30.5 M 186.5 180.5 L 186.5 30.5 M 283.5 180.5 L 283.5 30.5 M 381.5 180.5 L 381.5 30.5 M 479.5 180.5 L 479.5 30.5" stroke-linejoin="bevel" stroke-miterlimit="10" clip-path="url(#KNoPRpvZOtPx)"/><path fill="none" stroke="#e5e5e5" paint-order="fill" d="M 82.5 155.5 L 532.5 155.5 M 82.5 105.5 L 532.5 105.5 M 82.5 55.5 L 532.5 55.5" stroke-linejoin="bevel" stroke-miterlimit="10" clip-path="url(#yOMTzEnROKpB)"/><path fill="rgb(0,0,0)" stroke="rgb(0,0,0)" paint-order="fill" d="M 351.6022644042969 55.5 A 2.5 2.5 0 0 1 346.6022644042969 55.5 A 2.5 2.5 0 0 1 351.6022644042969 55.5" fill-opacity="1" clip-path="url(#IdBstlFHsPpk)" stroke-opacity="1" stroke-linejoin="bevel" stroke-miterlimit="10"/><path fill="none" stroke="#000000" paint-order="fill" d="M 270.3187561035156 55.5 L 512.0454406738281 55.5" stroke-linejoin="bevel" stroke-miterlimit="10" stroke-width="3" clip-path="url(#UnveBoPFfQKB)"/><path fill="rgb(136,179,180)" stroke="rgb(136,179,180)" paint-order="fill" d="M 141.039794921875 105.5 A 2.5 2.5 0 0 1 136.039794921875 105.5 A 2.5 2.5 0 0 1 141.039794921875 105.5" fill-opacity="1" clip-path="url(#TPxikJmmLpdt)" stroke-opacity="1" stroke-linejoin="bevel" stroke-miterlimit="10"/><path fill="none" stroke="#88B3B4" paint-order="fill" d="M 120.22339630126953 105.5 L 156.10760498046875 105.5" stroke-linejoin="bevel" stroke-miterlimit="10" stroke-width="3" clip-path="url(#lzJsvBwueZoL)"/><path fill="rgb(58,126,127)" stroke="rgb(58,126,127)" paint-order="fill" d="M 133.98651123046875 155.5 A 2.5 2.5 0 0 1 128.98651123046875 155.5 A 2.5 2.5 0 0 1 133.98651123046875 155.5" fill-opacity="1" clip-path="url(#oHPiKUWGCHZl)" stroke-opacity="1" stroke-linejoin="bevel" stroke-miterlimit="10"/><path fill="none" stroke="#3A7E7F" paint-order="fill" d="M 102.95454406738281 155.5 L 159.25238037109375 155.5" stroke-linejoin="bevel" stroke-miterlimit="10" stroke-width="3" clip-path="url(#iXBCaEefcudU)"/><path fill="none" stroke="black" paint-order="fill" d="M 82.5 180.5 L 532.5 180.5" stroke-linejoin="bevel" stroke-miterlimit="10"/><path fill="none" stroke="black" paint-order="fill" d="M 88.5 186.5 L 88.5 178.5 M 186.5 186.5 L 186.5 178.5 M 283.5 186.5 L 283.5 178.5 M 381.5 186.5 L 381.5 178.5 M 479.5 186.5 L 479.5 178.5" stroke-linejoin="bevel" stroke-miterlimit="10"/><path fill="none" stroke="black" paint-order="fill" d="M 88.5 184.5 L 88.5 180.5 M 108.5 184.5 L 108.5 180.5 M 127.5 184.5 L 127.5 180.5 M 147.5 184.5 L 147.5 180.5 M 166.5 184.5 L 166.5 180.5 M 186.5 184.5 L 186.5 180.5 M 205.5 184.5 L 205.5 180.5 M 225.5 184.5 L 225.5 180.5 M 244.5 184.5 L 244.5 180.5 M 264.5 184.5 L 264.5 180.5 M 283.5 184.5 L 283.5 180.5 M 303.5 184.5 L 303.5 180.5 M 323.5 184.5 L 323.5 180.5 M 342.5 184.5 L 342.5 180.5 M 362.5 184.5 L 362.5 180.5 M 381.5 184.5 L 381.5 180.5 M 401.5 184.5 L 401.5 180.5 M 420.5 184.5 L 420.5 180.5 M 440.5 184.5 L 440.5 180.5 M 459.5 184.5 L 459.5 180.5 M 479.5 184.5 L 479.5 180.5 M 498.5 184.5 L 498.5 180.5 M 518.5 184.5 L 518.5 180.5" stroke-linejoin="bevel" stroke-miterlimit="10"/><text fill="#444444" stroke="none" font-family="helvetica" font-size="11px" font-style="normal" font-weight="normal" text-decoration="normal" x="85.0825662612915" y="198.89013671875" text-anchor="start" dominant-baseline="alphabetic" transform="matrix(1, 0, 0, 1, 0.5, 0.5)">2</text><text fill="none" stroke="rgb(0,0,0)" font-family="helvetica" font-size="11px" font-style="normal" font-weight="normal" text-decoration="normal" x="85.0825662612915" y="198.89013671875" text-anchor="start" dominant-baseline="alphabetic" transform="matrix(1, 0, 0, 1, 0.5, 0.5)" stroke-opacity="0" stroke-linejoin="bevel" stroke-miterlimit="10">2</text><text fill="#444444" stroke="none" font-family="helvetica" font-size="11px" font-style="normal" font-weight="normal" text-decoration="normal" x="182.75528049468994" y="198.89013671875" text-anchor="start" dominant-baseline="alphabetic" transform="matrix(1, 0, 0, 1, 0.5, 0.5)">3</text><text fill="none" stroke="rgb(0,0,0)" font-family="helvetica" font-size="11px" font-style="normal" font-weight="normal" text-decoration="normal" x="182.75528049468994" y="198.89013671875" text-anchor="start" dominant-baseline="alphabetic" transform="matrix(1, 0, 0, 1, 0.5, 0.5)" stroke-opacity="0" stroke-linejoin="bevel" stroke-miterlimit="10">3</text><text fill="#444444" stroke="none" font-family="helvetica" font-size="11px" font-style="normal" font-weight="normal" text-decoration="normal" x="280.4279947280884" y="198.89013671875" text-anchor="start" dominant-baseline="alphabetic" transform="matrix(1, 0, 0, 1, 0.5, 0.5)">4</text><text fill="none" stroke="rgb(0,0,0)" font-family="helvetica" font-size="11px" font-style="normal" font-weight="normal" text-decoration="normal" x="280.4279947280884" y="198.89013671875" text-anchor="start" dominant-baseline="alphabetic" transform="matrix(1, 0, 0, 1, 0.5, 0.5)" stroke-opacity="0" stroke-linejoin="bevel" stroke-miterlimit="10">4</text><text fill="#444444" stroke="none" font-family="helvetica" font-size="11px" font-style="normal" font-weight="normal" text-decoration="normal" x="378.1007242202759" y="198.89013671875" text-anchor="start" dominant-baseline="alphabetic" transform="matrix(1, 0, 0, 1, 0.5, 0.5)">5</text><text fill="none" stroke="rgb(0,0,0)" font-family="helvetica" font-size="11px" font-style="normal" font-weight="normal" text-decoration="normal" x="378.1007242202759" y="198.89013671875" text-anchor="start" dominant-baseline="alphabetic" transform="matrix(1, 0, 0, 1, 0.5, 0.5)" stroke-opacity="0" stroke-linejoin="bevel" stroke-miterlimit="10">5</text><text fill="#444444" stroke="none" font-family="helvetica" font-size="11px" font-style="normal" font-weight="normal" text-decoration="normal" x="475.7734537124634" y="198.89013671875" text-anchor="start" dominant-baseline="alphabetic" transform="matrix(1, 0, 0, 1, 0.5, 0.5)">6</text><text fill="none" stroke="rgb(0,0,0)" font-family="helvetica" font-size="11px" font-style="normal" font-weight="normal" text-decoration="normal" x="475.7734537124634" y="198.89013671875" text-anchor="start" dominant-baseline="alphabetic" transform="matrix(1, 0, 0, 1, 0.5, 0.5)" stroke-opacity="0" stroke-linejoin="bevel" stroke-miterlimit="10">6</text><path fill="none" stroke="black" paint-order="fill" d="M 82.5 180.5 L 82.5 30.5" stroke-linejoin="bevel" stroke-miterlimit="10"/><path fill="none" stroke="black" paint-order="fill" d="M 76.5 155.5 L 84.5 155.5 M 76.5 105.5 L 84.5 105.5 M 76.5 55.5 L 84.5 55.5" stroke-linejoin="bevel" stroke-miterlimit="10"/><path fill="none" stroke="black" paint-order="fill" d="" stroke-linejoin="bevel" stroke-miterlimit="10"/><text fill="#444444" stroke="none" font-family="helvetica" font-size="11px" font-style="normal" font-weight="normal" text-decoration="normal" x="2.5500030517578125" y="158" text-anchor="start" dominant-baseline="alphabetic" transform="matrix(1, 0, 0, 1, 0.5, 0.5)">ASO_SPF-bC</text><text fill="none" stroke="rgb(0,0,0)" font-family="helvetica" font-size="11px" font-style="normal" font-weight="normal" text-decoration="normal" x="2.5500030517578125" y="158" text-anchor="start" dominant-baseline="alphabetic" transform="matrix(1, 0, 0, 1, 0.5, 0.5)" stroke-opacity="0" stroke-linejoin="bevel" stroke-miterlimit="10">ASO_SPF-bC</text><text fill="#444444" stroke="none" font-family="helvetica" font-size="11px" font-style="normal" font-weight="normal" text-decoration="normal" x="20.28333282470703" y="108" text-anchor="start" dominant-baseline="alphabetic" transform="matrix(1, 0, 0, 1, 0.5, 0.5)">ASO_SPF</text><text fill="none" stroke="rgb(0,0,0)" font-family="helvetica" font-size="11px" font-style="normal" font-weight="normal" text-decoration="normal" x="20.28333282470703" y="108" text-anchor="start" dominant-baseline="alphabetic" transform="matrix(1, 0, 0, 1, 0.5, 0.5)" stroke-opacity="0" stroke-linejoin="bevel" stroke-miterlimit="10">ASO_SPF</text><text fill="#444444" stroke="none" font-family="helvetica" font-size="11px" font-style="normal" font-weight="normal" text-decoration="normal" x="26.400001525878906" y="58" text-anchor="start" dominant-baseline="alphabetic" transform="matrix(1, 0, 0, 1, 0.5, 0.5)">WT_SPF</text><text fill="none" stroke="rgb(0,0,0)" font-family="helvetica" font-size="11px" font-style="normal" font-weight="normal" text-decoration="normal" x="26.400001525878906" y="58" text-anchor="start" dominant-baseline="alphabetic" transform="matrix(1, 0, 0, 1, 0.5, 0.5)" stroke-opacity="0" stroke-linejoin="bevel" stroke-miterlimit="10">WT_SPF</text><text fill="#444444" stroke="none" font-family="helvetica" font-size="13px" font-style="normal" font-weight="bold" text-decoration="normal" x="0" y="11" text-anchor="start" dominant-baseline="alphabetic" transform="matrix(1, 0, 0, 1, 82.5, 7.5)">mu 95%CI, lognormal model</text><text fill="none" stroke="rgb(0,0,0)" font-family="helvetica" font-size="13px" font-style="normal" font-weight="bold" text-decoration="normal" x="0" y="11" text-anchor="start" dominant-baseline="alphabetic" transform="matrix(1, 0, 0, 1, 82.5, 7.5)" stroke-opacity="0" stroke-miterlimit="10" stroke-dasharray="">mu 95%CI, lognormal model</text></svg>