<svg version="1.1" xmlns="http://www.w3.org/2000/svg" width="537" height="202"><defs><clipPath id="SZuNiqPDskEO"><path fill="none" stroke="none" d="M 0.5 0.5 L 537.5 0.5 L 537.5 202.5 L 0.5 202.5 L 0.5 0.5 Z M 82.5 30.5 L 532.5 30.5 L 532.5 180.5 L 82.5 180.5 L 82.5 30.5 Z" clip-rule="evenodd"/></clipPath><clipPath id="xzaXgXkTkNtd"><path fill="none" stroke="none" d="M 82.5 30.5 L 532.5 30.5 L 532.5 180.5 L 82.5 180.5 L 82.5 30.5 Z"/></clipPath><clipPath id="khyHZHgGMZGX"><path fill="none" stroke="none" d="M 82.5 30.5 L 532.5 30.5 L 532.5 180.5 L 82.5 180.5 L 82.5 30.5 Z"/></clipPath><clipPath id="KtPrJUThKOZq"><path fill="none" stroke="none" d="M 82.5 30.5 L 532.5 30.5 L 532.5 180.5 L 82.5 180.5 L 82.5 30.5 Z"/></clipPath><clipPath id="cDgzJOpMzLop"><path fill="none" stroke="none" d="M 82.5 30.5 L 532.5 30.5 L 532.5 180.5 L 82.5 180.5 L 82.5 30.5 Z"/></clipPath><clipPath id="CffGJWnmrcsZ"><path fill="none" stroke="none" d="M 82.5 30.5 L 532.5 30.5 L 532.5 180.5 L 82.5 180.5 L 82.5 30.5 Z"/></clipPath><clipPath id="PXSAAJUeyupB"><path fill="none" stroke="none" d="M 82.5 30.5 L 532.5 30.5 L 532.5 180.5 L 82.5 180.5 L 82.5 30.5 Z"/></clipPath><clipPath id="qaBWqiOdlEAA"><path fill="none" stroke="none" d="M 82.5 30.5 L 532.5 30.5 L 532.5 180.5 L 82.5 180.5 L 82.5 30.5 Z"/></clipPath><clipPath id="KzfAIJchktyG"><path fill="none" stroke="none" d="M 82.5 30.5 L 532.5 30.5 L 532.5 180.5 L 82.5 180.5 L 82.5 30.5 Z"/></clipPath><clipPath id="dWTmvtnDztoL"><path fill="none" stroke="none" d="M 82.5 30.5 L 532.5 30.5 L 532.5 180.5 L 82.5 180.5 L 82.5 30.5 Z"/></clipPath></defs><path fill="#ffffff" stroke="none" paint-order="stroke" d="M 0.5 0.5 L 537.5 0.5 L 537.5 202.5 L 0.5 202.5 L 0.5 0.5 Z" clip-path="url(#SZuNiqPDskEO)"/><path fill="#ffffff" stroke="none" paint-order="stroke" d="M 82.5 30.5 L 532.5 30.5 L 532.5 180.5 L 82.5 180.5 L 82.5 30.5 Z"/><path fill="none" stroke="#e5e5e5" paint-order="fill" d="M 82.5 30.5 L 532.5 30.5 L 532.5 180.5 L 82.5 180.5 L 82.5 30.5 Z" stroke-linejoin="bevel" stroke-miterlimit="10"/><path fill="none" stroke="#e5e5e5" paint-order="fill" d="M 127.5 180.5 L 127.5 30.5 M 226.5 180.5 L 226.5 30.5 M 324.5 180.5 L 324.5 30.5 M 423.5 180.5 L 423.5 30.5 M 521.5 180.5 L 521.5 30.5" stroke-linejoin="bevel" stroke-miterlimit="10" clip-path="url(#xzaXgXkTkNtd)"/><path fill="none" stroke="#e5e5e5" paint-order="fill" d="M 82.5 155.5 L 532.5 155.5 M 82.5 105.5 L 532.5 105.5 M 82.5 55.5 L 532.5 55.5" stroke-linejoin="bevel" stroke-miterlimit="10" clip-path="url(#khyHZHgGMZGX)"/><path fill="rgb(0,0,0)" stroke="rgb(0,0,0)" paint-order="fill" d="M 216.08831787109375 55.5 A 2.5 2.5 0 0 1 211.08831787109375 55.5 A 2.5 2.5 0 0 1 216.08831787109375 55.5" fill-opacity="1" clip-path="url(#KtPrJUThKOZq)" stroke-opacity="1" stroke-linejoin="bevel" stroke-miterlimit="10"/><path fill="none" stroke="#000000" paint-order="fill" d="M 102.95454406738281 55.5 L 299.7117004394531 55.5" stroke-linejoin="bevel" stroke-miterlimit="10" stroke-width="3" clip-path="url(#cDgzJOpMzLop)"/><path fill="rgb(136,179,180)" stroke="rgb(136,179,180)" paint-order="fill" d="M 366.7036437988281 105.5 A 2.5 2.5 0 0 1 361.7036437988281 105.5 A 2.5 2.5 0 0 1 366.7036437988281 105.5" fill-opacity="1" clip-path="url(#CffGJWnmrcsZ)" stroke-opacity="1" stroke-linejoin="bevel" stroke-miterlimit="10"/><path fill="none" stroke="#88B3B4" paint-order="fill" d="M 166.30474853515625 105.5 L 512.0454406738281 105.5" stroke-linejoin="bevel" stroke-miterlimit="10" stroke-width="3" clip-path="url(#PXSAAJUeyupB)"/><path fill="rgb(58,126,127)" stroke="rgb(58,126,127)" paint-order="fill" d="M 342.9557800292969 155.5 A 2.5 2.5 0 0 1 337.9557800292969 155.5 A 2.5 2.5 0 0 1 342.9557800292969 155.5" fill-opacity="1" clip-path="url(#qaBWqiOdlEAA)" stroke-opacity="1" stroke-linejoin="bevel" stroke-miterlimit="10"/><path fill="none" stroke="#3A7E7F" paint-order="fill" d="M 171.97683715820312 155.5 L 467.9863586425781 155.5" stroke-linejoin="bevel" stroke-miterlimit="10" stroke-width="3" clip-path="url(#KzfAIJchktyG)"/><path fill="none" stroke="black" paint-order="fill" d="M 82.5 180.5 L 532.5 180.5" stroke-linejoin="bevel" stroke-miterlimit="10"/><path fill="none" stroke="black" paint-order="fill" d="M 127.5 186.5 L 127.5 178.5 M 226.5 186.5 L 226.5 178.5 M 324.5 186.5 L 324.5 178.5 M 423.5 186.5 L 423.5 178.5 M 521.5 186.5 L 521.5 178.5" stroke-linejoin="bevel" stroke-miterlimit="10"/><path fill="none" stroke="black" paint-order="fill" d="M 108.5 184.5 L 108.5 180.5 M 88.5 184.5 L 88.5 180.5 M 127.5 184.5 L 127.5 180.5 M 147.5 184.5 L 147.5 180.5 M 167.5 184.5 L 167.5 180.5 M 187.5 184.5 L 187.5 180.5 M 206.5 184.5 L 206.5 180.5 M 226.5 184.5 L 226.5 180.5 M 246.5 184.5 L 246.5 180.5 M 265.5 184.5 L 265.5 180.5 M 285.5 184.5 L 285.5 180.5 M 305.5 184.5 L 305.5 180.5 M 324.5 184.5 L 324.5 180.5 M 344.5 184.5 L 344.5 180.5 M 364.5 184.5 L 364.5 180.5 M 383.5 184.5 L 383.5 180.5 M 403.5 184.5 L 403.5 180.5 M 423.5 184.5 L 423.5 180.5 M 443.5 184.5 L 443.5 180.5 M 462.5 184.5 L 462.5 180.5 M 482.5 184.5 L 482.5 180.5 M 502.5 184.5 L 502.5 180.5 M 521.5 184.5 L 521.5 180.5" stroke-linejoin="bevel" stroke-miterlimit="10"/><text fill="#444444" stroke="none" font-family="helvetica" font-size="11px" font-style="normal" font-weight="normal" text-decoration="normal" x="119.81099271774292" y="198.89013671875" text-anchor="start" dominant-baseline="alphabetic" transform="matrix(1, 0, 0, 1, 0.5, 0.5)">0.2</text><text fill="none" stroke="rgb(0,0,0)" font-family="helvetica" font-size="11px" font-style="normal" font-weight="normal" text-decoration="normal" x="119.81099271774292" y="198.89013671875" text-anchor="start" dominant-baseline="alphabetic" transform="matrix(1, 0, 0, 1, 0.5, 0.5)" stroke-opacity="0" stroke-linejoin="bevel" stroke-miterlimit="10">0.2</text><text fill="#444444" stroke="none" font-family="helvetica" font-size="11px" font-style="normal" font-weight="normal" text-decoration="normal" x="218.26771116256714" y="198.89013671875" text-anchor="start" dominant-baseline="alphabetic" transform="matrix(1, 0, 0, 1, 0.5, 0.5)">0.3</text><text fill="none" stroke="rgb(0,0,0)" font-family="helvetica" font-size="11px" font-style="normal" font-weight="normal" text-decoration="normal" x="218.26771116256714" y="198.89013671875" text-anchor="start" dominant-baseline="alphabetic" transform="matrix(1, 0, 0, 1, 0.5, 0.5)" stroke-opacity="0" stroke-linejoin="bevel" stroke-miterlimit="10">0.3</text><text fill="#444444" stroke="none" font-family="helvetica" font-size="11px" font-style="normal" font-weight="normal" text-decoration="normal" x="316.7244219779968" y="198.89013671875" text-anchor="start" dominant-baseline="alphabetic" transform="matrix(1, 0, 0, 1, 0.5, 0.5)">0.4</text><text fill="none" stroke="rgb(0,0,0)" font-family="helvetica" font-size="11px" font-style="normal" font-weight="normal" text-decoration="normal" x="316.7244219779968" y="198.89013671875" text-anchor="start" dominant-baseline="alphabetic" transform="matrix(1, 0, 0, 1, 0.5, 0.5)" stroke-opacity="0" stroke-linejoin="bevel" stroke-miterlimit="10">0.4</text><text fill="#444444" stroke="none" font-family="helvetica" font-size="11px" font-style="normal" font-weight="normal" text-decoration="normal" x="415.1811480522156" y="198.89013671875" text-anchor="start" dominant-baseline="alphabetic" transform="matrix(1, 0, 0, 1, 0.5, 0.5)">0.5</text><text fill="none" stroke="rgb(0,0,0)" font-family="helvetica" font-size="11px" font-style="normal" font-weight="normal" text-decoration="normal" x="415.1811480522156" y="198.89013671875" text-anchor="start" dominant-baseline="alphabetic" transform="matrix(1, 0, 0, 1, 0.5, 0.5)" stroke-opacity="0" stroke-linejoin="bevel" stroke-miterlimit="10">0.5</text><text fill="#444444" stroke="none" font-family="helvetica" font-size="11px" font-style="normal" font-weight="normal" text-decoration="normal" x="513.6378741264343" y="198.89013671875" text-anchor="start" dominant-baseline="alphabetic" transform="matrix(1, 0, 0, 1, 0.5, 0.5)">0.6</text><text fill="none" stroke="rgb(0,0,0)" font-family="helvetica" font-size="11px" font-style="normal" font-weight="normal" text-decoration="normal" x="513.6378741264343" y="198.89013671875" text-anchor="start" dominant-baseline="alphabetic" transform="matrix(1, 0, 0, 1, 0.5, 0.5)" stroke-opacity="0" stroke-linejoin="bevel" stroke-miterlimit="10">0.6</text><path fill="none" stroke="black" paint-order="fill" d="M 82.5 180.5 L 82.5 30.5" stroke-linejoin="bevel" stroke-miterlimit="10"/><path fill="none" stroke="black" paint-order="fill" d="M 76.5 155.5 L 84.5 155.5 M 76.5 105.5 L 84.5 105.5 M 76.5 55.5 L 84.5 55.5" stroke-linejoin="bevel" stroke-miterlimit="10"/><path fill="none" stroke="black" paint-order="fill" d="" stroke-linejoin="bevel" stroke-miterlimit="10"/><text fill="#444444" stroke="none" font-family="helvetica" font-size="11px" font-style="normal" font-weight="normal" text-decoration="normal" x="2.5500030517578125" y="158" text-anchor="start" dominant-baseline="alphabetic" transform="matrix(1, 0, 0, 1, 0.5, 0.5)">ASO_SPF-bC</text><text fill="none" stroke="rgb(0,0,0)" font-family="helvetica" font-size="11px" font-style="normal" font-weight="normal" text-decoration="normal" x="2.5500030517578125" y="158" text-anchor="start" dominant-baseline="alphabetic" transform="matrix(1, 0, 0, 1, 0.5, 0.5)" stroke-opacity="0" stroke-linejoin="bevel" stroke-miterlimit="10">ASO_SPF-bC</text><text fill="#444444" stroke="none" font-family="helvetica" font-size="11px" font-style="normal" font-weight="normal" text-decoration="normal" x="20.28333282470703" y="108" text-anchor="start" dominant-baseline="alphabetic" transform="matrix(1, 0, 0, 1, 0.5, 0.5)">ASO_SPF</text><text fill="none" stroke="rgb(0,0,0)" font-family="helvetica" font-size="11px" font-style="normal" font-weight="normal" text-decoration="normal" x="20.28333282470703" y="108" text-anchor="start" dominant-baseline="alphabetic" transform="matrix(1, 0, 0, 1, 0.5, 0.5)" stroke-opacity="0" stroke-linejoin="bevel" stroke-miterlimit="10">ASO_SPF</text><text fill="#444444" stroke="none" font-family="helvetica" font-size="11px" font-style="normal" font-weight="normal" text-decoration="normal" x="26.400001525878906" y="58" text-anchor="start" dominant-baseline="alphabetic" transform="matrix(1, 0, 0, 1, 0.5, 0.5)">WT_SPF</text><text fill="none" stroke="rgb(0,0,0)" font-family="helvetica" font-size="11px" font-style="normal" font-weight="normal" text-decoration="normal" x="26.400001525878906" y="58" text-anchor="start" dominant-baseline="alphabetic" transform="matrix(1, 0, 0, 1, 0.5, 0.5)" stroke-opacity="0" stroke-linejoin="bevel" stroke-miterlimit="10">WT_SPF</text><text fill="#444444" stroke="none" font-family="helvetica" font-size="13px" font-style="normal" font-weight="bold" text-decoration="normal" x="0" y="11" text-anchor="start" dominant-baseline="alphabetic" transform="matrix(1, 0, 0, 1, 82.5, 7.5)">sigma 95%CI, lognormal model</text><text fill="none" stroke="rgb(0,0,0)" font-family="helvetica" font-size="13px" font-style="normal" font-weight="bold" text-decoration="normal" x="0" y="11" text-anchor="start" dominant-baseline="alphabetic" transform="matrix(1, 0, 0, 1, 82.5, 7.5)" stroke-opacity="0" stroke-miterlimit="10" stroke-dasharray="">sigma 95%CI, lognormal model</text></svg>