<svg version="1.1" xmlns="http://www.w3.org/2000/svg" width="536" height="202"><defs><clipPath id="fEmcQDLROrzR"><path fill="none" stroke="none" d="M 0.5 0.5 L 536.5 0.5 L 536.5 202.5 L 0.5 202.5 L 0.5 0.5 Z M 81.5 30.5 L 531.5 30.5 L 531.5 180.5 L 81.5 180.5 L 81.5 30.5 Z" clip-rule="evenodd"/></clipPath><clipPath id="sfQGonPQuyyt"><path fill="none" stroke="none" d="M 81.5 30.5 L 531.5 30.5 L 531.5 180.5 L 81.5 180.5 L 81.5 30.5 Z"/></clipPath><clipPath id="mTFVlGpQEubB"><path fill="none" stroke="none" d="M 81.5 30.5 L 531.5 30.5 L 531.5 180.5 L 81.5 180.5 L 81.5 30.5 Z"/></clipPath><clipPath id="luoGkXPrFUoL"><path fill="none" stroke="none" d="M 81.5 30.5 L 531.5 30.5 L 531.5 180.5 L 81.5 180.5 L 81.5 30.5 Z"/></clipPath><clipPath id="IDRFlVTkNDUn"><path fill="none" stroke="none" d="M 81.5 30.5 L 531.5 30.5 L 531.5 180.5 L 81.5 180.5 L 81.5 30.5 Z"/></clipPath><clipPath id="JsBlHHfaTATJ"><path fill="none" stroke="none" d="M 81.5 30.5 L 531.5 30.5 L 531.5 180.5 L 81.5 180.5 L 81.5 30.5 Z"/></clipPath><clipPath id="PMFTpliuOUmO"><path fill="none" stroke="none" d="M 81.5 30.5 L 531.5 30.5 L 531.5 180.5 L 81.5 180.5 L 81.5 30.5 Z"/></clipPath><clipPath id="dnnlvNfVNBRu"><path fill="none" stroke="none" d="M 81.5 30.5 L 531.5 30.5 L 531.5 180.5 L 81.5 180.5 L 81.5 30.5 Z"/></clipPath><clipPath id="GpOLnuvRdTve"><path fill="none" stroke="none" d="M 81.5 30.5 L 531.5 30.5 L 531.5 180.5 L 81.5 180.5 L 81.5 30.5 Z"/></clipPath><clipPath id="aikSeVRtVIBE"><path fill="none" stroke="none" d="M 81.5 30.5 L 531.5 30.5 L 531.5 180.5 L 81.5 180.5 L 81.5 30.5 Z"/></clipPath></defs><path fill="#ffffff" stroke="none" paint-order="stroke" d="M 0.5 0.5 L 536.5 0.5 L 536.5 202.5 L 0.5 202.5 L 0.5 0.5 Z" clip-path="url(#fEmcQDLROrzR)"/><path fill="#ffffff" stroke="none" paint-order="stroke" d="M 81.5 30.5 L 531.5 30.5 L 531.5 180.5 L 81.5 180.5 L 81.5 30.5 Z"/><path fill="none" stroke="#e5e5e5" paint-order="fill" d="M 81.5 30.5 L 531.5 30.5 L 531.5 180.5 L 81.5 180.5 L 81.5 30.5 Z" stroke-linejoin="bevel" stroke-miterlimit="10"/><path fill="none" stroke="#e5e5e5" paint-order="fill" d="M 98.5 180.5 L 98.5 30.5 M 173.5 180.5 L 173.5 30.5 M 248.5 180.5 L 248.5 30.5 M 323.5 180.5 L 323.5 30.5 M 398.5 180.5 L 398.5 30.5 M 473.5 180.5 L 473.5 30.5" stroke-linejoin="bevel" stroke-miterlimit="10" clip-path="url(#sfQGonPQuyyt)"/><path fill="none" stroke="#e5e5e5" paint-order="fill" d="M 81.5 155.5 L 531.5 155.5 M 81.5 105.5 L 531.5 105.5 M 81.5 55.5 L 531.5 55.5" stroke-linejoin="bevel" stroke-miterlimit="10" clip-path="url(#mTFVlGpQEubB)"/><path fill="rgb(0,0,0)" stroke="rgb(0,0,0)" paint-order="fill" d="M 197.92330932617188 55.5 A 2.5 2.5 0 0 1 192.92330932617188 55.5 A 2.5 2.5 0 0 1 197.92330932617188 55.5" fill-opacity="1" clip-path="url(#luoGkXPrFUoL)" stroke-opacity="1" stroke-linejoin="bevel" stroke-miterlimit="10"/><path fill="none" stroke="#000000" paint-order="fill" d="M 101.95454406738281 55.5 L 279.9531555175781 55.5" stroke-linejoin="bevel" stroke-miterlimit="10" stroke-width="3" clip-path="url(#IDRFlVTkNDUn)"/><path fill="rgb(166,206,227)" stroke="rgb(166,206,227)" paint-order="fill" d="M 377.53326416015625 105.5 A 2.5 2.5 0 0 1 372.53326416015625 105.5 A 2.5 2.5 0 0 1 377.53326416015625 105.5" fill-opacity="1" clip-path="url(#JsBlHHfaTATJ)" stroke-opacity="1" stroke-linejoin="bevel" stroke-miterlimit="10"/><path fill="none" stroke="#a6cee3" paint-order="fill" d="M 232.34051513671875 105.5 L 511.0454406738281 105.5" stroke-linejoin="bevel" stroke-miterlimit="10" stroke-width="3" clip-path="url(#PMFTpliuOUmO)"/><path fill="rgb(31,120,180)" stroke="rgb(31,120,180)" paint-order="fill" d="M 250.94638061523438 155.5 A 2.5 2.5 0 0 1 245.94638061523438 155.5 A 2.5 2.5 0 0 1 250.94638061523438 155.5" fill-opacity="1" clip-path="url(#dnnlvNfVNBRu)" stroke-opacity="1" stroke-linejoin="bevel" stroke-miterlimit="10"/><path fill="none" stroke="#1F78B4" paint-order="fill" d="M 147.97463989257812 155.5 L 333.6697692871094 155.5" stroke-linejoin="bevel" stroke-miterlimit="10" stroke-width="3" clip-path="url(#GpOLnuvRdTve)"/><path fill="none" stroke="black" paint-order="fill" d="M 81.5 180.5 L 531.5 180.5" stroke-linejoin="bevel" stroke-miterlimit="10"/><path fill="none" stroke="black" paint-order="fill" d="M 98.5 186.5 L 98.5 178.5 M 173.5 186.5 L 173.5 178.5 M 248.5 186.5 L 248.5 178.5 M 323.5 186.5 L 323.5 178.5 M 398.5 186.5 L 398.5 178.5 M 473.5 186.5 L 473.5 178.5" stroke-linejoin="bevel" stroke-miterlimit="10"/><path fill="none" stroke="black" paint-order="fill" d="M 83.5 184.5 L 83.5 180.5 M 98.5 184.5 L 98.5 180.5 M 113.5 184.5 L 113.5 180.5 M 128.5 184.5 L 128.5 180.5 M 143.5 184.5 L 143.5 180.5 M 158.5 184.5 L 158.5 180.5 M 173.5 184.5 L 173.5 180.5 M 188.5 184.5 L 188.5 180.5 M 203.5 184.5 L 203.5 180.5 M 218.5 184.5 L 218.5 180.5 M 233.5 184.5 L 233.5 180.5 M 248.5 184.5 L 248.5 180.5 M 263.5 184.5 L 263.5 180.5 M 278.5 184.5 L 278.5 180.5 M 293.5 184.5 L 293.5 180.5 M 308.5 184.5 L 308.5 180.5 M 323.5 184.5 L 323.5 180.5 M 338.5 184.5 L 338.5 180.5 M 353.5 184.5 L 353.5 180.5 M 368.5 184.5 L 368.5 180.5 M 383.5 184.5 L 383.5 180.5 M 398.5 184.5 L 398.5 180.5 M 413.5 184.5 L 413.5 180.5 M 428.5 184.5 L 428.5 180.5 M 443.5 184.5 L 443.5 180.5 M 458.5 184.5 L 458.5 180.5 M 473.5 184.5 L 473.5 180.5 M 488.5 184.5 L 488.5 180.5 M 503.5 184.5 L 503.5 180.5 M 518.5 184.5 L 518.5 180.5" stroke-linejoin="bevel" stroke-miterlimit="10"/><text fill="#444444" stroke="none" font-family="helvetica" font-size="11px" font-style="normal" font-weight="normal" text-decoration="normal" x="90.32495450973511" y="198.89013671875" text-anchor="start" dominant-baseline="alphabetic" transform="matrix(1, 0, 0, 1, 0.5, 0.5)">0.3</text><text fill="none" stroke="rgb(0,0,0)" font-family="helvetica" font-size="11px" font-style="normal" font-weight="normal" text-decoration="normal" x="90.32495450973511" y="198.89013671875" text-anchor="start" dominant-baseline="alphabetic" transform="matrix(1, 0, 0, 1, 0.5, 0.5)" stroke-opacity="0" stroke-linejoin="bevel" stroke-miterlimit="10">0.3</text><text fill="#444444" stroke="none" font-family="helvetica" font-size="11px" font-style="normal" font-weight="normal" text-decoration="normal" x="165.3489489555359" y="198.89013671875" text-anchor="start" dominant-baseline="alphabetic" transform="matrix(1, 0, 0, 1, 0.5, 0.5)">0.4</text><text fill="none" stroke="rgb(0,0,0)" font-family="helvetica" font-size="11px" font-style="normal" font-weight="normal" text-decoration="normal" x="165.3489489555359" y="198.89013671875" text-anchor="start" dominant-baseline="alphabetic" transform="matrix(1, 0, 0, 1, 0.5, 0.5)" stroke-opacity="0" stroke-linejoin="bevel" stroke-miterlimit="10">0.4</text><text fill="#444444" stroke="none" font-family="helvetica" font-size="11px" font-style="normal" font-weight="normal" text-decoration="normal" x="240.37293577194214" y="198.89013671875" text-anchor="start" dominant-baseline="alphabetic" transform="matrix(1, 0, 0, 1, 0.5, 0.5)">0.5</text><text fill="none" stroke="rgb(0,0,0)" font-family="helvetica" font-size="11px" font-style="normal" font-weight="normal" text-decoration="normal" x="240.37293577194214" y="198.89013671875" text-anchor="start" dominant-baseline="alphabetic" transform="matrix(1, 0, 0, 1, 0.5, 0.5)" stroke-opacity="0" stroke-linejoin="bevel" stroke-miterlimit="10">0.5</text><text fill="#444444" stroke="none" font-family="helvetica" font-size="11px" font-style="normal" font-weight="normal" text-decoration="normal" x="315.39693784713745" y="198.89013671875" text-anchor="start" dominant-baseline="alphabetic" transform="matrix(1, 0, 0, 1, 0.5, 0.5)">0.6</text><text fill="none" stroke="rgb(0,0,0)" font-family="helvetica" font-size="11px" font-style="normal" font-weight="normal" text-decoration="normal" x="315.39693784713745" y="198.89013671875" text-anchor="start" dominant-baseline="alphabetic" transform="matrix(1, 0, 0, 1, 0.5, 0.5)" stroke-opacity="0" stroke-linejoin="bevel" stroke-miterlimit="10">0.6</text><text fill="#444444" stroke="none" font-family="helvetica" font-size="11px" font-style="normal" font-weight="normal" text-decoration="normal" x="390.4209246635437" y="198.89013671875" text-anchor="start" dominant-baseline="alphabetic" transform="matrix(1, 0, 0, 1, 0.5, 0.5)">0.7</text><text fill="none" stroke="rgb(0,0,0)" font-family="helvetica" font-size="11px" font-style="normal" font-weight="normal" text-decoration="normal" x="390.4209246635437" y="198.89013671875" text-anchor="start" dominant-baseline="alphabetic" transform="matrix(1, 0, 0, 1, 0.5, 0.5)" stroke-opacity="0" stroke-linejoin="bevel" stroke-miterlimit="10">0.7</text><text fill="#444444" stroke="none" font-family="helvetica" font-size="11px" font-style="normal" font-weight="normal" text-decoration="normal" x="465.44491147994995" y="198.89013671875" text-anchor="start" dominant-baseline="alphabetic" transform="matrix(1, 0, 0, 1, 0.5, 0.5)">0.8</text><text fill="none" stroke="rgb(0,0,0)" font-family="helvetica" font-size="11px" font-style="normal" font-weight="normal" text-decoration="normal" x="465.44491147994995" y="198.89013671875" text-anchor="start" dominant-baseline="alphabetic" transform="matrix(1, 0, 0, 1, 0.5, 0.5)" stroke-opacity="0" stroke-linejoin="bevel" stroke-miterlimit="10">0.8</text><path fill="none" stroke="black" paint-order="fill" d="M 81.5 180.5 L 81.5 30.5" stroke-linejoin="bevel" stroke-miterlimit="10"/><path fill="none" stroke="black" paint-order="fill" d="M 75.5 155.5 L 83.5 155.5 M 75.5 105.5 L 83.5 105.5 M 75.5 55.5 L 83.5 55.5" stroke-linejoin="bevel" stroke-miterlimit="10"/><path fill="none" stroke="black" paint-order="fill" d="" stroke-linejoin="bevel" stroke-miterlimit="10"/><text fill="#444444" stroke="none" font-family="helvetica" font-size="11px" font-style="normal" font-weight="normal" text-decoration="normal" x="2.7833328247070312" y="158" text-anchor="start" dominant-baseline="alphabetic" transform="matrix(1, 0, 0, 1, 0.5, 0.5)">ASO_SPF-Fp</text><text fill="none" stroke="rgb(0,0,0)" font-family="helvetica" font-size="11px" font-style="normal" font-weight="normal" text-decoration="normal" x="2.7833328247070312" y="158" text-anchor="start" dominant-baseline="alphabetic" transform="matrix(1, 0, 0, 1, 0.5, 0.5)" stroke-opacity="0" stroke-linejoin="bevel" stroke-miterlimit="10">ASO_SPF-Fp</text><text fill="#444444" stroke="none" font-family="helvetica" font-size="11px" font-style="normal" font-weight="normal" text-decoration="normal" x="19.28333282470703" y="108" text-anchor="start" dominant-baseline="alphabetic" transform="matrix(1, 0, 0, 1, 0.5, 0.5)">ASO_SPF</text><text fill="none" stroke="rgb(0,0,0)" font-family="helvetica" font-size="11px" font-style="normal" font-weight="normal" text-decoration="normal" x="19.28333282470703" y="108" text-anchor="start" dominant-baseline="alphabetic" transform="matrix(1, 0, 0, 1, 0.5, 0.5)" stroke-opacity="0" stroke-linejoin="bevel" stroke-miterlimit="10">ASO_SPF</text><text fill="#444444" stroke="none" font-family="helvetica" font-size="11px" font-style="normal" font-weight="normal" text-decoration="normal" x="25.400001525878906" y="58" text-anchor="start" dominant-baseline="alphabetic" transform="matrix(1, 0, 0, 1, 0.5, 0.5)">WT_SPF</text><text fill="none" stroke="rgb(0,0,0)" font-family="helvetica" font-size="11px" font-style="normal" font-weight="normal" text-decoration="normal" x="25.400001525878906" y="58" text-anchor="start" dominant-baseline="alphabetic" transform="matrix(1, 0, 0, 1, 0.5, 0.5)" stroke-opacity="0" stroke-linejoin="bevel" stroke-miterlimit="10">WT_SPF</text><text fill="#444444" stroke="none" font-family="helvetica" font-size="13px" font-style="normal" font-weight="bold" text-decoration="normal" x="0" y="11" text-anchor="start" dominant-baseline="alphabetic" transform="matrix(1, 0, 0, 1, 81.5, 7.5)">sigma 95%CI, lognormal model</text><text fill="none" stroke="rgb(0,0,0)" font-family="helvetica" font-size="13px" font-style="normal" font-weight="bold" text-decoration="normal" x="0" y="11" text-anchor="start" dominant-baseline="alphabetic" transform="matrix(1, 0, 0, 1, 81.5, 7.5)" stroke-opacity="0" stroke-miterlimit="10" stroke-dasharray="">sigma 95%CI, lognormal model</text></svg>