<svg version="1.1" xmlns="http://www.w3.org/2000/svg" width="536" height="202"><defs><clipPath id="JpfrDKnecSOS"><path fill="none" stroke="none" d="M 0.5 0.5 L 536.5 0.5 L 536.5 202.5 L 0.5 202.5 L 0.5 0.5 Z M 81.5 30.5 L 531.5 30.5 L 531.5 180.5 L 81.5 180.5 L 81.5 30.5 Z" clip-rule="evenodd"/></clipPath><clipPath id="ithZyPSTPnEr"><path fill="none" stroke="none" d="M 81.5 30.5 L 531.5 30.5 L 531.5 180.5 L 81.5 180.5 L 81.5 30.5 Z"/></clipPath><clipPath id="WAGyCzylnizX"><path fill="none" stroke="none" d="M 81.5 30.5 L 531.5 30.5 L 531.5 180.5 L 81.5 180.5 L 81.5 30.5 Z"/></clipPath><clipPath id="DiaCmNKVrafN"><path fill="none" stroke="none" d="M 81.5 30.5 L 531.5 30.5 L 531.5 180.5 L 81.5 180.5 L 81.5 30.5 Z"/></clipPath><clipPath id="OInCBFTJIrkR"><path fill="none" stroke="none" d="M 81.5 30.5 L 531.5 30.5 L 531.5 180.5 L 81.5 180.5 L 81.5 30.5 Z"/></clipPath><clipPath id="ggpnFCEbrkgP"><path fill="none" stroke="none" d="M 81.5 30.5 L 531.5 30.5 L 531.5 180.5 L 81.5 180.5 L 81.5 30.5 Z"/></clipPath><clipPath id="fOLPsFUxdcuh"><path fill="none" stroke="none" d="M 81.5 30.5 L 531.5 30.5 L 531.5 180.5 L 81.5 180.5 L 81.5 30.5 Z"/></clipPath><clipPath id="crWwZtOuRpvI"><path fill="none" stroke="none" d="M 81.5 30.5 L 531.5 30.5 L 531.5 180.5 L 81.5 180.5 L 81.5 30.5 Z"/></clipPath><clipPath id="VQyzyIJUwcoU"><path fill="none" stroke="none" d="M 81.5 30.5 L 531.5 30.5 L 531.5 180.5 L 81.5 180.5 L 81.5 30.5 Z"/></clipPath><clipPath id="xvuZbUIDtvlX"><path fill="none" stroke="none" d="M 81.5 30.5 L 531.5 30.5 L 531.5 180.5 L 81.5 180.5 L 81.5 30.5 Z"/></clipPath></defs><path fill="#ffffff" stroke="none" paint-order="stroke" d="M 0.5 0.5 L 536.5 0.5 L 536.5 202.5 L 0.5 202.5 L 0.5 0.5 Z" clip-path="url(#JpfrDKnecSOS)"/><path fill="#ffffff" stroke="none" paint-order="stroke" d="M 81.5 30.5 L 531.5 30.5 L 531.5 180.5 L 81.5 180.5 L 81.5 30.5 Z"/><path fill="none" stroke="#e5e5e5" paint-order="fill" d="M 81.5 30.5 L 531.5 30.5 L 531.5 180.5 L 81.5 180.5 L 81.5 30.5 Z" stroke-linejoin="bevel" stroke-miterlimit="10"/><path fill="none" stroke="#e5e5e5" paint-order="fill" d="M 122.5 180.5 L 122.5 30.5 M 182.5 180.5 L 182.5 30.5 M 243.5 180.5 L 243.5 30.5 M 304.5 180.5 L 304.5 30.5 M 364.5 180.5 L 364.5 30.5 M 425.5 180.5 L 425.5 30.5 M 486.5 180.5 L 486.5 30.5" stroke-linejoin="bevel" stroke-miterlimit="10" clip-path="url(#ithZyPSTPnEr)"/><path fill="none" stroke="#e5e5e5" paint-order="fill" d="M 81.5 155.5 L 531.5 155.5 M 81.5 105.5 L 531.5 105.5 M 81.5 55.5 L 531.5 55.5" stroke-linejoin="bevel" stroke-miterlimit="10" clip-path="url(#WAGyCzylnizX)"/><path fill="rgb(0,0,0)" stroke="rgb(0,0,0)" paint-order="fill" d="M 233.36032104492188 55.5 A 2.5 2.5 0 0 1 228.36032104492188 55.5 A 2.5 2.5 0 0 1 233.36032104492188 55.5" fill-opacity="1" clip-path="url(#DiaCmNKVrafN)" stroke-opacity="1" stroke-linejoin="bevel" stroke-miterlimit="10"/><path fill="none" stroke="#000000" paint-order="fill" d="M 101.95454406738281 55.5 L 340.5984802246094 55.5" stroke-linejoin="bevel" stroke-miterlimit="10" stroke-width="3" clip-path="url(#OInCBFTJIrkR)"/><path fill="rgb(166,206,227)" stroke="rgb(166,206,227)" paint-order="fill" d="M 364.4216003417969 105.5 A 2.5 2.5 0 0 1 359.4216003417969 105.5 A 2.5 2.5 0 0 1 364.4216003417969 105.5" fill-opacity="1" clip-path="url(#ggpnFCEbrkgP)" stroke-opacity="1" stroke-linejoin="bevel" stroke-miterlimit="10"/><path fill="none" stroke="#a6cee3" paint-order="fill" d="M 191.78857421875 105.5 L 511.0454406738281 105.5" stroke-linejoin="bevel" stroke-miterlimit="10" stroke-width="3" clip-path="url(#fOLPsFUxdcuh)"/><path fill="rgb(31,120,180)" stroke="rgb(31,120,180)" paint-order="fill" d="M 344.99102783203125 155.5 A 2.5 2.5 0 0 1 339.99102783203125 155.5 A 2.5 2.5 0 0 1 344.99102783203125 155.5" fill-opacity="1" clip-path="url(#crWwZtOuRpvI)" stroke-opacity="1" stroke-linejoin="bevel" stroke-miterlimit="10"/><path fill="none" stroke="#1F78B4" paint-order="fill" d="M 195.62338256835938 155.5 L 475.9230041503906 155.5" stroke-linejoin="bevel" stroke-miterlimit="10" stroke-width="3" clip-path="url(#VQyzyIJUwcoU)"/><path fill="none" stroke="black" paint-order="fill" d="M 81.5 180.5 L 531.5 180.5" stroke-linejoin="bevel" stroke-miterlimit="10"/><path fill="none" stroke="black" paint-order="fill" d="M 122.5 186.5 L 122.5 178.5 M 182.5 186.5 L 182.5 178.5 M 243.5 186.5 L 243.5 178.5 M 304.5 186.5 L 304.5 178.5 M 364.5 186.5 L 364.5 178.5 M 425.5 186.5 L 425.5 178.5 M 486.5 186.5 L 486.5 178.5" stroke-linejoin="bevel" stroke-miterlimit="10"/><path fill="none" stroke="black" paint-order="fill" d="M 110.5 184.5 L 110.5 180.5 M 97.5 184.5 L 97.5 180.5 M 85.5 184.5 L 85.5 180.5 M 122.5 184.5 L 122.5 180.5 M 134.5 184.5 L 134.5 180.5 M 146.5 184.5 L 146.5 180.5 M 158.5 184.5 L 158.5 180.5 M 170.5 184.5 L 170.5 180.5 M 182.5 184.5 L 182.5 180.5 M 195.5 184.5 L 195.5 180.5 M 207.5 184.5 L 207.5 180.5 M 219.5 184.5 L 219.5 180.5 M 231.5 184.5 L 231.5 180.5 M 243.5 184.5 L 243.5 180.5 M 255.5 184.5 L 255.5 180.5 M 267.5 184.5 L 267.5 180.5 M 279.5 184.5 L 279.5 180.5 M 292.5 184.5 L 292.5 180.5 M 304.5 184.5 L 304.5 180.5 M 316.5 184.5 L 316.5 180.5 M 328.5 184.5 L 328.5 180.5 M 340.5 184.5 L 340.5 180.5 M 352.5 184.5 L 352.5 180.5 M 364.5 184.5 L 364.5 180.5 M 376.5 184.5 L 376.5 180.5 M 389.5 184.5 L 389.5 180.5 M 401.5 184.5 L 401.5 180.5 M 413.5 184.5 L 413.5 180.5 M 425.5 184.5 L 425.5 180.5 M 437.5 184.5 L 437.5 180.5 M 449.5 184.5 L 449.5 180.5 M 461.5 184.5 L 461.5 180.5 M 473.5 184.5 L 473.5 180.5 M 486.5 184.5 L 486.5 180.5 M 498.5 184.5 L 498.5 180.5 M 510.5 184.5 L 510.5 180.5 M 522.5 184.5 L 522.5 180.5" stroke-linejoin="bevel" stroke-miterlimit="10"/><text fill="#444444" stroke="none" font-family="helvetica" font-size="11px" font-style="normal" font-weight="normal" text-decoration="normal" x="111.0290117263794" y="198.89013671875" text-anchor="start" dominant-baseline="alphabetic" transform="matrix(1, 0, 0, 1, 0.5, 0.5)">0.25</text><text fill="none" stroke="rgb(0,0,0)" font-family="helvetica" font-size="11px" font-style="normal" font-weight="normal" text-decoration="normal" x="111.0290117263794" y="198.89013671875" text-anchor="start" dominant-baseline="alphabetic" transform="matrix(1, 0, 0, 1, 0.5, 0.5)" stroke-opacity="0" stroke-linejoin="bevel" stroke-miterlimit="10">0.25</text><text fill="#444444" stroke="none" font-family="helvetica" font-size="11px" font-style="normal" font-weight="normal" text-decoration="normal" x="174.73202085494995" y="198.89013671875" text-anchor="start" dominant-baseline="alphabetic" transform="matrix(1, 0, 0, 1, 0.5, 0.5)">0.3</text><text fill="none" stroke="rgb(0,0,0)" font-family="helvetica" font-size="11px" font-style="normal" font-weight="normal" text-decoration="normal" x="174.73202085494995" y="198.89013671875" text-anchor="start" dominant-baseline="alphabetic" transform="matrix(1, 0, 0, 1, 0.5, 0.5)" stroke-opacity="0" stroke-linejoin="bevel" stroke-miterlimit="10">0.3</text><text fill="#444444" stroke="none" font-family="helvetica" font-size="11px" font-style="normal" font-weight="normal" text-decoration="normal" x="232.3183717727661" y="198.89013671875" text-anchor="start" dominant-baseline="alphabetic" transform="matrix(1, 0, 0, 1, 0.5, 0.5)">0.35</text><text fill="none" stroke="rgb(0,0,0)" font-family="helvetica" font-size="11px" font-style="normal" font-weight="normal" text-decoration="normal" x="232.3183717727661" y="198.89013671875" text-anchor="start" dominant-baseline="alphabetic" transform="matrix(1, 0, 0, 1, 0.5, 0.5)" stroke-opacity="0" stroke-linejoin="bevel" stroke-miterlimit="10">0.35</text><text fill="#444444" stroke="none" font-family="helvetica" font-size="11px" font-style="normal" font-weight="normal" text-decoration="normal" x="296.0213885307312" y="198.89013671875" text-anchor="start" dominant-baseline="alphabetic" transform="matrix(1, 0, 0, 1, 0.5, 0.5)">0.4</text><text fill="none" stroke="rgb(0,0,0)" font-family="helvetica" font-size="11px" font-style="normal" font-weight="normal" text-decoration="normal" x="296.0213885307312" y="198.89013671875" text-anchor="start" dominant-baseline="alphabetic" transform="matrix(1, 0, 0, 1, 0.5, 0.5)" stroke-opacity="0" stroke-linejoin="bevel" stroke-miterlimit="10">0.4</text><text fill="#444444" stroke="none" font-family="helvetica" font-size="11px" font-style="normal" font-weight="normal" text-decoration="normal" x="353.60770893096924" y="198.89013671875" text-anchor="start" dominant-baseline="alphabetic" transform="matrix(1, 0, 0, 1, 0.5, 0.5)">0.45</text><text fill="none" stroke="rgb(0,0,0)" font-family="helvetica" font-size="11px" font-style="normal" font-weight="normal" text-decoration="normal" x="353.60770893096924" y="198.89013671875" text-anchor="start" dominant-baseline="alphabetic" transform="matrix(1, 0, 0, 1, 0.5, 0.5)" stroke-opacity="0" stroke-linejoin="bevel" stroke-miterlimit="10">0.45</text><text fill="#444444" stroke="none" font-family="helvetica" font-size="11px" font-style="normal" font-weight="normal" text-decoration="normal" x="417.3107256889343" y="198.89013671875" text-anchor="start" dominant-baseline="alphabetic" transform="matrix(1, 0, 0, 1, 0.5, 0.5)">0.5</text><text fill="none" stroke="rgb(0,0,0)" font-family="helvetica" font-size="11px" font-style="normal" font-weight="normal" text-decoration="normal" x="417.3107256889343" y="198.89013671875" text-anchor="start" dominant-baseline="alphabetic" transform="matrix(1, 0, 0, 1, 0.5, 0.5)" stroke-opacity="0" stroke-linejoin="bevel" stroke-miterlimit="10">0.5</text><text fill="#444444" stroke="none" font-family="helvetica" font-size="11px" font-style="normal" font-weight="normal" text-decoration="normal" x="474.8970766067505" y="198.89013671875" text-anchor="start" dominant-baseline="alphabetic" transform="matrix(1, 0, 0, 1, 0.5, 0.5)">0.55</text><text fill="none" stroke="rgb(0,0,0)" font-family="helvetica" font-size="11px" font-style="normal" font-weight="normal" text-decoration="normal" x="474.8970766067505" y="198.89013671875" text-anchor="start" dominant-baseline="alphabetic" transform="matrix(1, 0, 0, 1, 0.5, 0.5)" stroke-opacity="0" stroke-linejoin="bevel" stroke-miterlimit="10">0.55</text><path fill="none" stroke="black" paint-order="fill" d="M 81.5 180.5 L 81.5 30.5" stroke-linejoin="bevel" stroke-miterlimit="10"/><path fill="none" stroke="black" paint-order="fill" d="M 75.5 155.5 L 83.5 155.5 M 75.5 105.5 L 83.5 105.5 M 75.5 55.5 L 83.5 55.5" stroke-linejoin="bevel" stroke-miterlimit="10"/><path fill="none" stroke="black" paint-order="fill" d="" stroke-linejoin="bevel" stroke-miterlimit="10"/><text fill="#444444" stroke="none" font-family="helvetica" font-size="11px" font-style="normal" font-weight="normal" text-decoration="normal" x="2.7833328247070312" y="158" text-anchor="start" dominant-baseline="alphabetic" transform="matrix(1, 0, 0, 1, 0.5, 0.5)">ASO_SPF-Fp</text><text fill="none" stroke="rgb(0,0,0)" font-family="helvetica" font-size="11px" font-style="normal" font-weight="normal" text-decoration="normal" x="2.7833328247070312" y="158" text-anchor="start" dominant-baseline="alphabetic" transform="matrix(1, 0, 0, 1, 0.5, 0.5)" stroke-opacity="0" stroke-linejoin="bevel" stroke-miterlimit="10">ASO_SPF-Fp</text><text fill="#444444" stroke="none" font-family="helvetica" font-size="11px" font-style="normal" font-weight="normal" text-decoration="normal" x="19.28333282470703" y="108" text-anchor="start" dominant-baseline="alphabetic" transform="matrix(1, 0, 0, 1, 0.5, 0.5)">ASO_SPF</text><text fill="none" stroke="rgb(0,0,0)" font-family="helvetica" font-size="11px" font-style="normal" font-weight="normal" text-decoration="normal" x="19.28333282470703" y="108" text-anchor="start" dominant-baseline="alphabetic" transform="matrix(1, 0, 0, 1, 0.5, 0.5)" stroke-opacity="0" stroke-linejoin="bevel" stroke-miterlimit="10">ASO_SPF</text><text fill="#444444" stroke="none" font-family="helvetica" font-size="11px" font-style="normal" font-weight="normal" text-decoration="normal" x="25.400001525878906" y="58" text-anchor="start" dominant-baseline="alphabetic" transform="matrix(1, 0, 0, 1, 0.5, 0.5)">WT_SPF</text><text fill="none" stroke="rgb(0,0,0)" font-family="helvetica" font-size="11px" font-style="normal" font-weight="normal" text-decoration="normal" x="25.400001525878906" y="58" text-anchor="start" dominant-baseline="alphabetic" transform="matrix(1, 0, 0, 1, 0.5, 0.5)" stroke-opacity="0" stroke-linejoin="bevel" stroke-miterlimit="10">WT_SPF</text><text fill="#444444" stroke="none" font-family="helvetica" font-size="13px" font-style="normal" font-weight="bold" text-decoration="normal" x="0" y="11" text-anchor="start" dominant-baseline="alphabetic" transform="matrix(1, 0, 0, 1, 81.5, 7.5)">sigma 95%CI, mixed lognormal model</text><text fill="none" stroke="rgb(0,0,0)" font-family="helvetica" font-size="13px" font-style="normal" font-weight="bold" text-decoration="normal" x="0" y="11" text-anchor="start" dominant-baseline="alphabetic" transform="matrix(1, 0, 0, 1, 81.5, 7.5)" stroke-opacity="0" stroke-miterlimit="10" stroke-dasharray="">sigma 95%CI, mixed lognormal model</text></svg>