<svg version="1.1" xmlns="http://www.w3.org/2000/svg" width="536" height="202"><defs><clipPath id="ZdgXhZiXBTqy"><path fill="none" stroke="none" d="M 0.5 0.5 L 536.5 0.5 L 536.5 202.5 L 0.5 202.5 L 0.5 0.5 Z M 81.5 30.5 L 531.5 30.5 L 531.5 180.5 L 81.5 180.5 L 81.5 30.5 Z" clip-rule="evenodd"/></clipPath><clipPath id="VlIKIGrdHrHP"><path fill="none" stroke="none" d="M 81.5 30.5 L 531.5 30.5 L 531.5 180.5 L 81.5 180.5 L 81.5 30.5 Z"/></clipPath><clipPath id="tiLvtKVcvUxG"><path fill="none" stroke="none" d="M 81.5 30.5 L 531.5 30.5 L 531.5 180.5 L 81.5 180.5 L 81.5 30.5 Z"/></clipPath><clipPath id="BFVKrEFobmtD"><path fill="none" stroke="none" d="M 81.5 30.5 L 531.5 30.5 L 531.5 180.5 L 81.5 180.5 L 81.5 30.5 Z"/></clipPath><clipPath id="QeTBAuzrHVaR"><path fill="none" stroke="none" d="M 81.5 30.5 L 531.5 30.5 L 531.5 180.5 L 81.5 180.5 L 81.5 30.5 Z"/></clipPath><clipPath id="mMsFwnDkWlkI"><path fill="none" stroke="none" d="M 81.5 30.5 L 531.5 30.5 L 531.5 180.5 L 81.5 180.5 L 81.5 30.5 Z"/></clipPath><clipPath id="SGXBVFdonDTo"><path fill="none" stroke="none" d="M 81.5 30.5 L 531.5 30.5 L 531.5 180.5 L 81.5 180.5 L 81.5 30.5 Z"/></clipPath><clipPath id="UEbCFxTITdnP"><path fill="none" stroke="none" d="M 81.5 30.5 L 531.5 30.5 L 531.5 180.5 L 81.5 180.5 L 81.5 30.5 Z"/></clipPath><clipPath id="sNzAVckeLzwA"><path fill="none" stroke="none" d="M 81.5 30.5 L 531.5 30.5 L 531.5 180.5 L 81.5 180.5 L 81.5 30.5 Z"/></clipPath><clipPath id="DGkhBqUsxFew"><path fill="none" stroke="none" d="M 81.5 30.5 L 531.5 30.5 L 531.5 180.5 L 81.5 180.5 L 81.5 30.5 Z"/></clipPath></defs><path fill="#ffffff" stroke="none" paint-order="stroke" d="M 0.5 0.5 L 536.5 0.5 L 536.5 202.5 L 0.5 202.5 L 0.5 0.5 Z" clip-path="url(#ZdgXhZiXBTqy)"/><path fill="#ffffff" stroke="none" paint-order="stroke" d="M 81.5 30.5 L 531.5 30.5 L 531.5 180.5 L 81.5 180.5 L 81.5 30.5 Z"/><path fill="none" stroke="#e5e5e5" paint-order="fill" d="M 81.5 30.5 L 531.5 30.5 L 531.5 180.5 L 81.5 180.5 L 81.5 30.5 Z" stroke-linejoin="bevel" stroke-miterlimit="10"/><path fill="none" stroke="#e5e5e5" paint-order="fill" d="M 140.5 180.5 L 140.5 30.5 M 217.5 180.5 L 217.5 30.5 M 293.5 180.5 L 293.5 30.5 M 369.5 180.5 L 369.5 30.5 M 446.5 180.5 L 446.5 30.5 M 522.5 180.5 L 522.5 30.5" stroke-linejoin="bevel" stroke-miterlimit="10" clip-path="url(#VlIKIGrdHrHP)"/><path fill="none" stroke="#e5e5e5" paint-order="fill" d="M 81.5 155.5 L 531.5 155.5 M 81.5 105.5 L 531.5 105.5 M 81.5 55.5 L 531.5 55.5" stroke-linejoin="bevel" stroke-miterlimit="10" clip-path="url(#tiLvtKVcvUxG)"/><path fill="rgb(0,0,0)" stroke="rgb(0,0,0)" paint-order="fill" d="M 158.0485382080078 55.5 A 2.5 2.5 0 0 1 153.0485382080078 55.5 A 2.5 2.5 0 0 1 158.0485382080078 55.5" fill-opacity="1" clip-path="url(#BFVKrEFobmtD)" stroke-opacity="1" stroke-linejoin="bevel" stroke-miterlimit="10"/><path fill="none" stroke="#000000" paint-order="fill" d="M 101.95454406738281 55.5 L 208.09730529785156 55.5" stroke-linejoin="bevel" stroke-miterlimit="10" stroke-width="3" clip-path="url(#QeTBAuzrHVaR)"/><path fill="rgb(166,206,227)" stroke="rgb(166,206,227)" paint-order="fill" d="M 444.42620849609375 105.5 A 2.5 2.5 0 0 1 439.42620849609375 105.5 A 2.5 2.5 0 0 1 444.42620849609375 105.5" fill-opacity="1" clip-path="url(#mMsFwnDkWlkI)" stroke-opacity="1" stroke-linejoin="bevel" stroke-miterlimit="10"/><path fill="none" stroke="#a6cee3" paint-order="fill" d="M 369.1627197265625 105.5 L 511.0454406738281 105.5" stroke-linejoin="bevel" stroke-miterlimit="10" stroke-width="3" clip-path="url(#SGXBVFdonDTo)"/><path fill="rgb(31,120,180)" stroke="rgb(31,120,180)" paint-order="fill" d="M 367.6866760253906 155.5 A 2.5 2.5 0 0 1 362.6866760253906 155.5 A 2.5 2.5 0 0 1 367.6866760253906 155.5" fill-opacity="1" clip-path="url(#UEbCFxTITdnP)" stroke-opacity="1" stroke-linejoin="bevel" stroke-miterlimit="10"/><path fill="none" stroke="#1F78B4" paint-order="fill" d="M 303.0036926269531 155.5 L 424.8410949707031 155.5" stroke-linejoin="bevel" stroke-miterlimit="10" stroke-width="3" clip-path="url(#sNzAVckeLzwA)"/><path fill="none" stroke="black" paint-order="fill" d="M 81.5 180.5 L 531.5 180.5" stroke-linejoin="bevel" stroke-miterlimit="10"/><path fill="none" stroke="black" paint-order="fill" d="M 140.5 186.5 L 140.5 178.5 M 217.5 186.5 L 217.5 178.5 M 293.5 186.5 L 293.5 178.5 M 369.5 186.5 L 369.5 178.5 M 446.5 186.5 L 446.5 178.5 M 522.5 186.5 L 522.5 178.5" stroke-linejoin="bevel" stroke-miterlimit="10"/><path fill="none" stroke="black" paint-order="fill" d="M 125.5 184.5 L 125.5 180.5 M 110.5 184.5 L 110.5 180.5 M 94.5 184.5 L 94.5 180.5 M 140.5 184.5 L 140.5 180.5 M 156.5 184.5 L 156.5 180.5 M 171.5 184.5 L 171.5 180.5 M 186.5 184.5 L 186.5 180.5 M 201.5 184.5 L 201.5 180.5 M 217.5 184.5 L 217.5 180.5 M 232.5 184.5 L 232.5 180.5 M 247.5 184.5 L 247.5 180.5 M 263.5 184.5 L 263.5 180.5 M 278.5 184.5 L 278.5 180.5 M 293.5 184.5 L 293.5 180.5 M 308.5 184.5 L 308.5 180.5 M 324.5 184.5 L 324.5 180.5 M 339.5 184.5 L 339.5 180.5 M 354.5 184.5 L 354.5 180.5 M 369.5 184.5 L 369.5 180.5 M 385.5 184.5 L 385.5 180.5 M 400.5 184.5 L 400.5 180.5 M 415.5 184.5 L 415.5 180.5 M 431.5 184.5 L 431.5 180.5 M 446.5 184.5 L 446.5 180.5 M 461.5 184.5 L 461.5 180.5 M 476.5 184.5 L 476.5 180.5 M 492.5 184.5 L 492.5 180.5 M 507.5 184.5 L 507.5 180.5 M 522.5 184.5 L 522.5 180.5" stroke-linejoin="bevel" stroke-miterlimit="10"/><text fill="#444444" stroke="none" font-family="helvetica" font-size="11px" font-style="normal" font-weight="normal" text-decoration="normal" x="132.608989238739" y="198.89013671875" text-anchor="start" dominant-baseline="alphabetic" transform="matrix(1, 0, 0, 1, 0.5, 0.5)">1.4</text><text fill="none" stroke="rgb(0,0,0)" font-family="helvetica" font-size="11px" font-style="normal" font-weight="normal" text-decoration="normal" x="132.608989238739" y="198.89013671875" text-anchor="start" dominant-baseline="alphabetic" transform="matrix(1, 0, 0, 1, 0.5, 0.5)" stroke-opacity="0" stroke-linejoin="bevel" stroke-miterlimit="10">1.4</text><text fill="#444444" stroke="none" font-family="helvetica" font-size="11px" font-style="normal" font-weight="normal" text-decoration="normal" x="209.022563457489" y="198.89013671875" text-anchor="start" dominant-baseline="alphabetic" transform="matrix(1, 0, 0, 1, 0.5, 0.5)">1.6</text><text fill="none" stroke="rgb(0,0,0)" font-family="helvetica" font-size="11px" font-style="normal" font-weight="normal" text-decoration="normal" x="209.022563457489" y="198.89013671875" text-anchor="start" dominant-baseline="alphabetic" transform="matrix(1, 0, 0, 1, 0.5, 0.5)" stroke-opacity="0" stroke-linejoin="bevel" stroke-miterlimit="10">1.6</text><text fill="#444444" stroke="none" font-family="helvetica" font-size="11px" font-style="normal" font-weight="normal" text-decoration="normal" x="285.4361529350281" y="198.89013671875" text-anchor="start" dominant-baseline="alphabetic" transform="matrix(1, 0, 0, 1, 0.5, 0.5)">1.8</text><text fill="none" stroke="rgb(0,0,0)" font-family="helvetica" font-size="11px" font-style="normal" font-weight="normal" text-decoration="normal" x="285.4361529350281" y="198.89013671875" text-anchor="start" dominant-baseline="alphabetic" transform="matrix(1, 0, 0, 1, 0.5, 0.5)" stroke-opacity="0" stroke-linejoin="bevel" stroke-miterlimit="10">1.8</text><text fill="#444444" stroke="none" font-family="helvetica" font-size="11px" font-style="normal" font-weight="normal" text-decoration="normal" x="366.43306064605713" y="198.89013671875" text-anchor="start" dominant-baseline="alphabetic" transform="matrix(1, 0, 0, 1, 0.5, 0.5)">2</text><text fill="none" stroke="rgb(0,0,0)" font-family="helvetica" font-size="11px" font-style="normal" font-weight="normal" text-decoration="normal" x="366.43306064605713" y="198.89013671875" text-anchor="start" dominant-baseline="alphabetic" transform="matrix(1, 0, 0, 1, 0.5, 0.5)" stroke-opacity="0" stroke-linejoin="bevel" stroke-miterlimit="10">2</text><text fill="#444444" stroke="none" font-family="helvetica" font-size="11px" font-style="normal" font-weight="normal" text-decoration="normal" x="438.2633013725281" y="198.89013671875" text-anchor="start" dominant-baseline="alphabetic" transform="matrix(1, 0, 0, 1, 0.5, 0.5)">2.2</text><text fill="none" stroke="rgb(0,0,0)" font-family="helvetica" font-size="11px" font-style="normal" font-weight="normal" text-decoration="normal" x="438.2633013725281" y="198.89013671875" text-anchor="start" dominant-baseline="alphabetic" transform="matrix(1, 0, 0, 1, 0.5, 0.5)" stroke-opacity="0" stroke-linejoin="bevel" stroke-miterlimit="10">2.2</text><text fill="#444444" stroke="none" font-family="helvetica" font-size="11px" font-style="normal" font-weight="normal" text-decoration="normal" x="514.6768755912781" y="198.89013671875" text-anchor="start" dominant-baseline="alphabetic" transform="matrix(1, 0, 0, 1, 0.5, 0.5)">2.4</text><text fill="none" stroke="rgb(0,0,0)" font-family="helvetica" font-size="11px" font-style="normal" font-weight="normal" text-decoration="normal" x="514.6768755912781" y="198.89013671875" text-anchor="start" dominant-baseline="alphabetic" transform="matrix(1, 0, 0, 1, 0.5, 0.5)" stroke-opacity="0" stroke-linejoin="bevel" stroke-miterlimit="10">2.4</text><path fill="none" stroke="black" paint-order="fill" d="M 81.5 180.5 L 81.5 30.5" stroke-linejoin="bevel" stroke-miterlimit="10"/><path fill="none" stroke="black" paint-order="fill" d="M 75.5 155.5 L 83.5 155.5 M 75.5 105.5 L 83.5 105.5 M 75.5 55.5 L 83.5 55.5" stroke-linejoin="bevel" stroke-miterlimit="10"/><path fill="none" stroke="black" paint-order="fill" d="" stroke-linejoin="bevel" stroke-miterlimit="10"/><text fill="#444444" stroke="none" font-family="helvetica" font-size="11px" font-style="normal" font-weight="normal" text-decoration="normal" x="2.7833328247070312" y="158" text-anchor="start" dominant-baseline="alphabetic" transform="matrix(1, 0, 0, 1, 0.5, 0.5)">ASO_SPF-Fp</text><text fill="none" stroke="rgb(0,0,0)" font-family="helvetica" font-size="11px" font-style="normal" font-weight="normal" text-decoration="normal" x="2.7833328247070312" y="158" text-anchor="start" dominant-baseline="alphabetic" transform="matrix(1, 0, 0, 1, 0.5, 0.5)" stroke-opacity="0" stroke-linejoin="bevel" stroke-miterlimit="10">ASO_SPF-Fp</text><text fill="#444444" stroke="none" font-family="helvetica" font-size="11px" font-style="normal" font-weight="normal" text-decoration="normal" x="19.28333282470703" y="108" text-anchor="start" dominant-baseline="alphabetic" transform="matrix(1, 0, 0, 1, 0.5, 0.5)">ASO_SPF</text><text fill="none" stroke="rgb(0,0,0)" font-family="helvetica" font-size="11px" font-style="normal" font-weight="normal" text-decoration="normal" x="19.28333282470703" y="108" text-anchor="start" dominant-baseline="alphabetic" transform="matrix(1, 0, 0, 1, 0.5, 0.5)" stroke-opacity="0" stroke-linejoin="bevel" stroke-miterlimit="10">ASO_SPF</text><text fill="#444444" stroke="none" font-family="helvetica" font-size="11px" font-style="normal" font-weight="normal" text-decoration="normal" x="25.400001525878906" y="58" text-anchor="start" dominant-baseline="alphabetic" transform="matrix(1, 0, 0, 1, 0.5, 0.5)">WT_SPF</text><text fill="none" stroke="rgb(0,0,0)" font-family="helvetica" font-size="11px" font-style="normal" font-weight="normal" text-decoration="normal" x="25.400001525878906" y="58" text-anchor="start" dominant-baseline="alphabetic" transform="matrix(1, 0, 0, 1, 0.5, 0.5)" stroke-opacity="0" stroke-linejoin="bevel" stroke-miterlimit="10">WT_SPF</text><text fill="#444444" stroke="none" font-family="helvetica" font-size="13px" font-style="normal" font-weight="bold" text-decoration="normal" x="0" y="11" text-anchor="start" dominant-baseline="alphabetic" transform="matrix(1, 0, 0, 1, 81.5, 7.5)">mu 95%CI, mixed lognormal model</text><text fill="none" stroke="rgb(0,0,0)" font-family="helvetica" font-size="13px" font-style="normal" font-weight="bold" text-decoration="normal" x="0" y="11" text-anchor="start" dominant-baseline="alphabetic" transform="matrix(1, 0, 0, 1, 81.5, 7.5)" stroke-opacity="0" stroke-miterlimit="10" stroke-dasharray="">mu 95%CI, mixed lognormal model</text></svg>