<svg version="1.1" xmlns="http://www.w3.org/2000/svg" width="536" height="202"><defs><clipPath id="xNVWmxhtWnsc"><path fill="none" stroke="none" d="M 0.5 0.5 L 536.5 0.5 L 536.5 202.5 L 0.5 202.5 L 0.5 0.5 Z M 81.5 30.5 L 531.5 30.5 L 531.5 180.5 L 81.5 180.5 L 81.5 30.5 Z" clip-rule="evenodd"/></clipPath><clipPath id="rAZziTOHHUIB"><path fill="none" stroke="none" d="M 81.5 30.5 L 531.5 30.5 L 531.5 180.5 L 81.5 180.5 L 81.5 30.5 Z"/></clipPath><clipPath id="htWhokyLhmWD"><path fill="none" stroke="none" d="M 81.5 30.5 L 531.5 30.5 L 531.5 180.5 L 81.5 180.5 L 81.5 30.5 Z"/></clipPath><clipPath id="CgTHaeonTVWB"><path fill="none" stroke="none" d="M 81.5 30.5 L 531.5 30.5 L 531.5 180.5 L 81.5 180.5 L 81.5 30.5 Z"/></clipPath><clipPath id="ykFDvcdxALUd"><path fill="none" stroke="none" d="M 81.5 30.5 L 531.5 30.5 L 531.5 180.5 L 81.5 180.5 L 81.5 30.5 Z"/></clipPath><clipPath id="pRIsDTTmbTAV"><path fill="none" stroke="none" d="M 81.5 30.5 L 531.5 30.5 L 531.5 180.5 L 81.5 180.5 L 81.5 30.5 Z"/></clipPath><clipPath id="qscEvJkTHIQo"><path fill="none" stroke="none" d="M 81.5 30.5 L 531.5 30.5 L 531.5 180.5 L 81.5 180.5 L 81.5 30.5 Z"/></clipPath><clipPath id="WRmsytiEzpFi"><path fill="none" stroke="none" d="M 81.5 30.5 L 531.5 30.5 L 531.5 180.5 L 81.5 180.5 L 81.5 30.5 Z"/></clipPath><clipPath id="ZwmUfeANsVyD"><path fill="none" stroke="none" d="M 81.5 30.5 L 531.5 30.5 L 531.5 180.5 L 81.5 180.5 L 81.5 30.5 Z"/></clipPath><clipPath id="EMNHaIaqknNV"><path fill="none" stroke="none" d="M 81.5 30.5 L 531.5 30.5 L 531.5 180.5 L 81.5 180.5 L 81.5 30.5 Z"/></clipPath></defs><path fill="#ffffff" stroke="none" paint-order="stroke" d="M 0.5 0.5 L 536.5 0.5 L 536.5 202.5 L 0.5 202.5 L 0.5 0.5 Z" clip-path="url(#xNVWmxhtWnsc)"/><path fill="#ffffff" stroke="none" paint-order="stroke" d="M 81.5 30.5 L 531.5 30.5 L 531.5 180.5 L 81.5 180.5 L 81.5 30.5 Z"/><path fill="none" stroke="#e5e5e5" paint-order="fill" d="M 81.5 30.5 L 531.5 30.5 L 531.5 180.5 L 81.5 180.5 L 81.5 30.5 Z" stroke-linejoin="bevel" stroke-miterlimit="10"/><path fill="none" stroke="#e5e5e5" paint-order="fill" d="M 117.5 180.5 L 117.5 30.5 M 176.5 180.5 L 176.5 30.5 M 235.5 180.5 L 235.5 30.5 M 295.5 180.5 L 295.5 30.5 M 354.5 180.5 L 354.5 30.5 M 413.5 180.5 L 413.5 30.5 M 472.5 180.5 L 472.5 30.5" stroke-linejoin="bevel" stroke-miterlimit="10" clip-path="url(#rAZziTOHHUIB)"/><path fill="none" stroke="#e5e5e5" paint-order="fill" d="M 81.5 155.5 L 531.5 155.5 M 81.5 105.5 L 531.5 105.5 M 81.5 55.5 L 531.5 55.5" stroke-linejoin="bevel" stroke-miterlimit="10" clip-path="url(#htWhokyLhmWD)"/><path fill="rgb(0,0,0)" stroke="rgb(0,0,0)" paint-order="fill" d="M 206.18203735351562 55.5 A 2.5 2.5 0 0 1 201.18203735351562 55.5 A 2.5 2.5 0 0 1 206.18203735351562 55.5" fill-opacity="1" clip-path="url(#CgTHaeonTVWB)" stroke-opacity="1" stroke-linejoin="bevel" stroke-miterlimit="10"/><path fill="none" stroke="#000000" paint-order="fill" d="M 101.95454406738281 55.5 L 287.5978698730469 55.5" stroke-linejoin="bevel" stroke-miterlimit="10" stroke-width="3" clip-path="url(#ykFDvcdxALUd)"/><path fill="rgb(166,206,227)" stroke="rgb(166,206,227)" paint-order="fill" d="M 288.55889892578125 105.5 A 2.5 2.5 0 0 1 283.55889892578125 105.5 A 2.5 2.5 0 0 1 288.55889892578125 105.5" fill-opacity="1" clip-path="url(#pRIsDTTmbTAV)" stroke-opacity="1" stroke-linejoin="bevel" stroke-miterlimit="10"/><path fill="none" stroke="#a6cee3" paint-order="fill" d="M 166.05686950683594 105.5 L 392.6500244140625 105.5" stroke-linejoin="bevel" stroke-miterlimit="10" stroke-width="3" clip-path="url(#qscEvJkTHIQo)"/><path fill="rgb(31,120,180)" stroke="rgb(31,120,180)" paint-order="fill" d="M 394.36883544921875 155.5 A 2.5 2.5 0 0 1 389.36883544921875 155.5 A 2.5 2.5 0 0 1 394.36883544921875 155.5" fill-opacity="1" clip-path="url(#WRmsytiEzpFi)" stroke-opacity="1" stroke-linejoin="bevel" stroke-miterlimit="10"/><path fill="none" stroke="#1F78B4" paint-order="fill" d="M 250.6414337158203 155.5 L 511.0454406738281 155.5" stroke-linejoin="bevel" stroke-miterlimit="10" stroke-width="3" clip-path="url(#ZwmUfeANsVyD)"/><path fill="none" stroke="black" paint-order="fill" d="M 81.5 180.5 L 531.5 180.5" stroke-linejoin="bevel" stroke-miterlimit="10"/><path fill="none" stroke="black" paint-order="fill" d="M 117.5 186.5 L 117.5 178.5 M 176.5 186.5 L 176.5 178.5 M 235.5 186.5 L 235.5 178.5 M 295.5 186.5 L 295.5 178.5 M 354.5 186.5 L 354.5 178.5 M 413.5 186.5 L 413.5 178.5 M 472.5 186.5 L 472.5 178.5" stroke-linejoin="bevel" stroke-miterlimit="10"/><path fill="none" stroke="black" paint-order="fill" d="M 105.5 184.5 L 105.5 180.5 M 94.5 184.5 L 94.5 180.5 M 82.5 184.5 L 82.5 180.5 M 117.5 184.5 L 117.5 180.5 M 129.5 184.5 L 129.5 180.5 M 141.5 184.5 L 141.5 180.5 M 153.5 184.5 L 153.5 180.5 M 165.5 184.5 L 165.5 180.5 M 176.5 184.5 L 176.5 180.5 M 188.5 184.5 L 188.5 180.5 M 200.5 184.5 L 200.5 180.5 M 212.5 184.5 L 212.5 180.5 M 224.5 184.5 L 224.5 180.5 M 235.5 184.5 L 235.5 180.5 M 247.5 184.5 L 247.5 180.5 M 259.5 184.5 L 259.5 180.5 M 271.5 184.5 L 271.5 180.5 M 283.5 184.5 L 283.5 180.5 M 295.5 184.5 L 295.5 180.5 M 306.5 184.5 L 306.5 180.5 M 318.5 184.5 L 318.5 180.5 M 330.5 184.5 L 330.5 180.5 M 342.5 184.5 L 342.5 180.5 M 354.5 184.5 L 354.5 180.5 M 366.5 184.5 L 366.5 180.5 M 377.5 184.5 L 377.5 180.5 M 389.5 184.5 L 389.5 180.5 M 401.5 184.5 L 401.5 180.5 M 413.5 184.5 L 413.5 180.5 M 425.5 184.5 L 425.5 180.5 M 437.5 184.5 L 437.5 180.5 M 448.5 184.5 L 448.5 180.5 M 460.5 184.5 L 460.5 180.5 M 472.5 184.5 L 472.5 180.5 M 484.5 184.5 L 484.5 180.5 M 496.5 184.5 L 496.5 180.5 M 508.5 184.5 L 508.5 180.5 M 519.5 184.5 L 519.5 180.5" stroke-linejoin="bevel" stroke-miterlimit="10"/><text fill="#444444" stroke="none" font-family="helvetica" font-size="11px" font-style="normal" font-weight="normal" text-decoration="normal" x="109.58620023727417" y="198.89013671875" text-anchor="start" dominant-baseline="alphabetic" transform="matrix(1, 0, 0, 1, 0.5, 0.5)">0.2</text><text fill="none" stroke="rgb(0,0,0)" font-family="helvetica" font-size="11px" font-style="normal" font-weight="normal" text-decoration="normal" x="109.58620023727417" y="198.89013671875" text-anchor="start" dominant-baseline="alphabetic" transform="matrix(1, 0, 0, 1, 0.5, 0.5)" stroke-opacity="0" stroke-linejoin="bevel" stroke-miterlimit="10">0.2</text><text fill="#444444" stroke="none" font-family="helvetica" font-size="11px" font-style="normal" font-weight="normal" text-decoration="normal" x="165.66386127471924" y="198.89013671875" text-anchor="start" dominant-baseline="alphabetic" transform="matrix(1, 0, 0, 1, 0.5, 0.5)">0.25</text><text fill="none" stroke="rgb(0,0,0)" font-family="helvetica" font-size="11px" font-style="normal" font-weight="normal" text-decoration="normal" x="165.66386127471924" y="198.89013671875" text-anchor="start" dominant-baseline="alphabetic" transform="matrix(1, 0, 0, 1, 0.5, 0.5)" stroke-opacity="0" stroke-linejoin="bevel" stroke-miterlimit="10">0.25</text><text fill="#444444" stroke="none" font-family="helvetica" font-size="11px" font-style="normal" font-weight="normal" text-decoration="normal" x="227.85819578170776" y="198.89013671875" text-anchor="start" dominant-baseline="alphabetic" transform="matrix(1, 0, 0, 1, 0.5, 0.5)">0.3</text><text fill="none" stroke="rgb(0,0,0)" font-family="helvetica" font-size="11px" font-style="normal" font-weight="normal" text-decoration="normal" x="227.85819578170776" y="198.89013671875" text-anchor="start" dominant-baseline="alphabetic" transform="matrix(1, 0, 0, 1, 0.5, 0.5)" stroke-opacity="0" stroke-linejoin="bevel" stroke-miterlimit="10">0.3</text><text fill="#444444" stroke="none" font-family="helvetica" font-size="11px" font-style="normal" font-weight="normal" text-decoration="normal" x="283.93586444854736" y="198.89013671875" text-anchor="start" dominant-baseline="alphabetic" transform="matrix(1, 0, 0, 1, 0.5, 0.5)">0.35</text><text fill="none" stroke="rgb(0,0,0)" font-family="helvetica" font-size="11px" font-style="normal" font-weight="normal" text-decoration="normal" x="283.93586444854736" y="198.89013671875" text-anchor="start" dominant-baseline="alphabetic" transform="matrix(1, 0, 0, 1, 0.5, 0.5)" stroke-opacity="0" stroke-linejoin="bevel" stroke-miterlimit="10">0.35</text><text fill="#444444" stroke="none" font-family="helvetica" font-size="11px" font-style="normal" font-weight="normal" text-decoration="normal" x="346.1301836967468" y="198.89013671875" text-anchor="start" dominant-baseline="alphabetic" transform="matrix(1, 0, 0, 1, 0.5, 0.5)">0.4</text><text fill="none" stroke="rgb(0,0,0)" font-family="helvetica" font-size="11px" font-style="normal" font-weight="normal" text-decoration="normal" x="346.1301836967468" y="198.89013671875" text-anchor="start" dominant-baseline="alphabetic" transform="matrix(1, 0, 0, 1, 0.5, 0.5)" stroke-opacity="0" stroke-linejoin="bevel" stroke-miterlimit="10">0.4</text><text fill="#444444" stroke="none" font-family="helvetica" font-size="11px" font-style="normal" font-weight="normal" text-decoration="normal" x="402.20783710479736" y="198.89013671875" text-anchor="start" dominant-baseline="alphabetic" transform="matrix(1, 0, 0, 1, 0.5, 0.5)">0.45</text><text fill="none" stroke="rgb(0,0,0)" font-family="helvetica" font-size="11px" font-style="normal" font-weight="normal" text-decoration="normal" x="402.20783710479736" y="198.89013671875" text-anchor="start" dominant-baseline="alphabetic" transform="matrix(1, 0, 0, 1, 0.5, 0.5)" stroke-opacity="0" stroke-linejoin="bevel" stroke-miterlimit="10">0.45</text><text fill="#444444" stroke="none" font-family="helvetica" font-size="11px" font-style="normal" font-weight="normal" text-decoration="normal" x="464.40218687057495" y="198.89013671875" text-anchor="start" dominant-baseline="alphabetic" transform="matrix(1, 0, 0, 1, 0.5, 0.5)">0.5</text><text fill="none" stroke="rgb(0,0,0)" font-family="helvetica" font-size="11px" font-style="normal" font-weight="normal" text-decoration="normal" x="464.40218687057495" y="198.89013671875" text-anchor="start" dominant-baseline="alphabetic" transform="matrix(1, 0, 0, 1, 0.5, 0.5)" stroke-opacity="0" stroke-linejoin="bevel" stroke-miterlimit="10">0.5</text><path fill="none" stroke="black" paint-order="fill" d="M 81.5 180.5 L 81.5 30.5" stroke-linejoin="bevel" stroke-miterlimit="10"/><path fill="none" stroke="black" paint-order="fill" d="M 75.5 155.5 L 83.5 155.5 M 75.5 105.5 L 83.5 105.5 M 75.5 55.5 L 83.5 55.5" stroke-linejoin="bevel" stroke-miterlimit="10"/><path fill="none" stroke="black" paint-order="fill" d="" stroke-linejoin="bevel" stroke-miterlimit="10"/><text fill="#444444" stroke="none" font-family="helvetica" font-size="11px" font-style="normal" font-weight="normal" text-decoration="normal" x="2.7833328247070312" y="158" text-anchor="start" dominant-baseline="alphabetic" transform="matrix(1, 0, 0, 1, 0.5, 0.5)">ASO_SPF-Fp</text><text fill="none" stroke="rgb(0,0,0)" font-family="helvetica" font-size="11px" font-style="normal" font-weight="normal" text-decoration="normal" x="2.7833328247070312" y="158" text-anchor="start" dominant-baseline="alphabetic" transform="matrix(1, 0, 0, 1, 0.5, 0.5)" stroke-opacity="0" stroke-linejoin="bevel" stroke-miterlimit="10">ASO_SPF-Fp</text><text fill="#444444" stroke="none" font-family="helvetica" font-size="11px" font-style="normal" font-weight="normal" text-decoration="normal" x="19.28333282470703" y="108" text-anchor="start" dominant-baseline="alphabetic" transform="matrix(1, 0, 0, 1, 0.5, 0.5)">ASO_SPF</text><text fill="none" stroke="rgb(0,0,0)" font-family="helvetica" font-size="11px" font-style="normal" font-weight="normal" text-decoration="normal" x="19.28333282470703" y="108" text-anchor="start" dominant-baseline="alphabetic" transform="matrix(1, 0, 0, 1, 0.5, 0.5)" stroke-opacity="0" stroke-linejoin="bevel" stroke-miterlimit="10">ASO_SPF</text><text fill="#444444" stroke="none" font-family="helvetica" font-size="11px" font-style="normal" font-weight="normal" text-decoration="normal" x="25.400001525878906" y="58" text-anchor="start" dominant-baseline="alphabetic" transform="matrix(1, 0, 0, 1, 0.5, 0.5)">WT_SPF</text><text fill="none" stroke="rgb(0,0,0)" font-family="helvetica" font-size="11px" font-style="normal" font-weight="normal" text-decoration="normal" x="25.400001525878906" y="58" text-anchor="start" dominant-baseline="alphabetic" transform="matrix(1, 0, 0, 1, 0.5, 0.5)" stroke-opacity="0" stroke-linejoin="bevel" stroke-miterlimit="10">WT_SPF</text><text fill="#444444" stroke="none" font-family="helvetica" font-size="13px" font-style="normal" font-weight="bold" text-decoration="normal" x="0" y="11" text-anchor="start" dominant-baseline="alphabetic" transform="matrix(1, 0, 0, 1, 81.5, 7.5)">sigma 95%CI, lognormal model</text><text fill="none" stroke="rgb(0,0,0)" font-family="helvetica" font-size="13px" font-style="normal" font-weight="bold" text-decoration="normal" x="0" y="11" text-anchor="start" dominant-baseline="alphabetic" transform="matrix(1, 0, 0, 1, 81.5, 7.5)" stroke-opacity="0" stroke-miterlimit="10" stroke-dasharray="">sigma 95%CI, lognormal model</text></svg>