<svg version="1.1" xmlns="http://www.w3.org/2000/svg" width="536" height="202"><defs><clipPath id="HgmGNDuzkxCS"><path fill="none" stroke="none" d="M 0.5 0.5 L 536.5 0.5 L 536.5 202.5 L 0.5 202.5 L 0.5 0.5 Z M 81.5 30.5 L 531.5 30.5 L 531.5 180.5 L 81.5 180.5 L 81.5 30.5 Z" clip-rule="evenodd"/></clipPath><clipPath id="NfbIdJDreAke"><path fill="none" stroke="none" d="M 81.5 30.5 L 531.5 30.5 L 531.5 180.5 L 81.5 180.5 L 81.5 30.5 Z"/></clipPath><clipPath id="NFTSExRrWZMA"><path fill="none" stroke="none" d="M 81.5 30.5 L 531.5 30.5 L 531.5 180.5 L 81.5 180.5 L 81.5 30.5 Z"/></clipPath><clipPath id="JWpcgNdPTbQx"><path fill="none" stroke="none" d="M 81.5 30.5 L 531.5 30.5 L 531.5 180.5 L 81.5 180.5 L 81.5 30.5 Z"/></clipPath><clipPath id="OhrRhtBohPuH"><path fill="none" stroke="none" d="M 81.5 30.5 L 531.5 30.5 L 531.5 180.5 L 81.5 180.5 L 81.5 30.5 Z"/></clipPath><clipPath id="kCsogkGrWfuN"><path fill="none" stroke="none" d="M 81.5 30.5 L 531.5 30.5 L 531.5 180.5 L 81.5 180.5 L 81.5 30.5 Z"/></clipPath><clipPath id="tGlulzRRkTGs"><path fill="none" stroke="none" d="M 81.5 30.5 L 531.5 30.5 L 531.5 180.5 L 81.5 180.5 L 81.5 30.5 Z"/></clipPath><clipPath id="ksVuFcREDSRK"><path fill="none" stroke="none" d="M 81.5 30.5 L 531.5 30.5 L 531.5 180.5 L 81.5 180.5 L 81.5 30.5 Z"/></clipPath><clipPath id="EMtSdftgsxnt"><path fill="none" stroke="none" d="M 81.5 30.5 L 531.5 30.5 L 531.5 180.5 L 81.5 180.5 L 81.5 30.5 Z"/></clipPath><clipPath id="RGBpNInRxXeT"><path fill="none" stroke="none" d="M 81.5 30.5 L 531.5 30.5 L 531.5 180.5 L 81.5 180.5 L 81.5 30.5 Z"/></clipPath></defs><path fill="#ffffff" stroke="none" paint-order="stroke" d="M 0.5 0.5 L 536.5 0.5 L 536.5 202.5 L 0.5 202.5 L 0.5 0.5 Z" clip-path="url(#HgmGNDuzkxCS)"/><path fill="#ffffff" stroke="none" paint-order="stroke" d="M 81.5 30.5 L 531.5 30.5 L 531.5 180.5 L 81.5 180.5 L 81.5 30.5 Z"/><path fill="none" stroke="#e5e5e5" paint-order="fill" d="M 81.5 30.5 L 531.5 30.5 L 531.5 180.5 L 81.5 180.5 L 81.5 30.5 Z" stroke-linejoin="bevel" stroke-miterlimit="10"/><path fill="none" stroke="#e5e5e5" paint-order="fill" d="M 92.5 180.5 L 92.5 30.5 M 197.5 180.5 L 197.5 30.5 M 301.5 180.5 L 301.5 30.5 M 406.5 180.5 L 406.5 30.5 M 511.5 180.5 L 511.5 30.5" stroke-linejoin="bevel" stroke-miterlimit="10" clip-path="url(#NfbIdJDreAke)"/><path fill="none" stroke="#e5e5e5" paint-order="fill" d="M 81.5 155.5 L 531.5 155.5 M 81.5 105.5 L 531.5 105.5 M 81.5 55.5 L 531.5 55.5" stroke-linejoin="bevel" stroke-miterlimit="10" clip-path="url(#NFTSExRrWZMA)"/><path fill="rgb(0,0,0)" stroke="rgb(0,0,0)" paint-order="fill" d="M 210.23092651367188 55.5 A 2.5 2.5 0 0 1 205.23092651367188 55.5 A 2.5 2.5 0 0 1 210.23092651367188 55.5" fill-opacity="1" clip-path="url(#JWpcgNdPTbQx)" stroke-opacity="1" stroke-linejoin="bevel" stroke-miterlimit="10"/><path fill="none" stroke="#000000" paint-order="fill" d="M 101.95454406738281 55.5 L 511.0454406738281 55.5" stroke-linejoin="bevel" stroke-miterlimit="10" stroke-width="3" clip-path="url(#OhrRhtBohPuH)"/><path fill="rgb(166,206,227)" stroke="rgb(166,206,227)" paint-order="fill" d="M 499.68182373046875 105.5 A 2.5 2.5 0 0 1 494.68182373046875 105.5 A 2.5 2.5 0 0 1 499.68182373046875 105.5" fill-opacity="1" clip-path="url(#kCsogkGrWfuN)" stroke-opacity="1" stroke-linejoin="bevel" stroke-miterlimit="10"/><path fill="none" stroke="#a6cee3" paint-order="fill" d="M 449.2016296386719 105.5 L 511.0454406738281 105.5" stroke-linejoin="bevel" stroke-miterlimit="10" stroke-width="3" clip-path="url(#tGlulzRRkTGs)"/><path fill="rgb(31,120,180)" stroke="rgb(31,120,180)" paint-order="fill" d="M 440.0547790527344 155.5 A 2.5 2.5 0 0 1 435.0547790527344 155.5 A 2.5 2.5 0 0 1 440.0547790527344 155.5" fill-opacity="1" clip-path="url(#ksVuFcREDSRK)" stroke-opacity="1" stroke-linejoin="bevel" stroke-miterlimit="10"/><path fill="none" stroke="#1F78B4" paint-order="fill" d="M 362.135009765625 155.5 L 496.7996520996094 155.5" stroke-linejoin="bevel" stroke-miterlimit="10" stroke-width="3" clip-path="url(#EMtSdftgsxnt)"/><path fill="none" stroke="black" paint-order="fill" d="M 81.5 180.5 L 531.5 180.5" stroke-linejoin="bevel" stroke-miterlimit="10"/><path fill="none" stroke="black" paint-order="fill" d="M 92.5 186.5 L 92.5 178.5 M 197.5 186.5 L 197.5 178.5 M 301.5 186.5 L 301.5 178.5 M 406.5 186.5 L 406.5 178.5 M 511.5 186.5 L 511.5 178.5" stroke-linejoin="bevel" stroke-miterlimit="10"/><path fill="none" stroke="black" paint-order="fill" d="M 92.5 184.5 L 92.5 180.5 M 113.5 184.5 L 113.5 180.5 M 134.5 184.5 L 134.5 180.5 M 155.5 184.5 L 155.5 180.5 M 176.5 184.5 L 176.5 180.5 M 197.5 184.5 L 197.5 180.5 M 218.5 184.5 L 218.5 180.5 M 239.5 184.5 L 239.5 180.5 M 260.5 184.5 L 260.5 180.5 M 280.5 184.5 L 280.5 180.5 M 301.5 184.5 L 301.5 180.5 M 322.5 184.5 L 322.5 180.5 M 343.5 184.5 L 343.5 180.5 M 364.5 184.5 L 364.5 180.5 M 385.5 184.5 L 385.5 180.5 M 406.5 184.5 L 406.5 180.5 M 427.5 184.5 L 427.5 180.5 M 448.5 184.5 L 448.5 180.5 M 469.5 184.5 L 469.5 180.5 M 490.5 184.5 L 490.5 180.5 M 511.5 184.5 L 511.5 180.5" stroke-linejoin="bevel" stroke-miterlimit="10"/><text fill="#444444" stroke="none" font-family="helvetica" font-size="11px" font-style="normal" font-weight="normal" text-decoration="normal" x="84.58788633346558" y="198.89013671875" text-anchor="start" dominant-baseline="alphabetic" transform="matrix(1, 0, 0, 1, 0.5, 0.5)">0.2</text><text fill="none" stroke="rgb(0,0,0)" font-family="helvetica" font-size="11px" font-style="normal" font-weight="normal" text-decoration="normal" x="84.58788633346558" y="198.89013671875" text-anchor="start" dominant-baseline="alphabetic" transform="matrix(1, 0, 0, 1, 0.5, 0.5)" stroke-opacity="0" stroke-linejoin="bevel" stroke-miterlimit="10">0.2</text><text fill="#444444" stroke="none" font-family="helvetica" font-size="11px" font-style="normal" font-weight="normal" text-decoration="normal" x="189.16686582565308" y="198.89013671875" text-anchor="start" dominant-baseline="alphabetic" transform="matrix(1, 0, 0, 1, 0.5, 0.5)">0.4</text><text fill="none" stroke="rgb(0,0,0)" font-family="helvetica" font-size="11px" font-style="normal" font-weight="normal" text-decoration="normal" x="189.16686582565308" y="198.89013671875" text-anchor="start" dominant-baseline="alphabetic" transform="matrix(1, 0, 0, 1, 0.5, 0.5)" stroke-opacity="0" stroke-linejoin="bevel" stroke-miterlimit="10">0.4</text><text fill="#444444" stroke="none" font-family="helvetica" font-size="11px" font-style="normal" font-weight="normal" text-decoration="normal" x="293.7458453178406" y="198.89013671875" text-anchor="start" dominant-baseline="alphabetic" transform="matrix(1, 0, 0, 1, 0.5, 0.5)">0.6</text><text fill="none" stroke="rgb(0,0,0)" font-family="helvetica" font-size="11px" font-style="normal" font-weight="normal" text-decoration="normal" x="293.7458453178406" y="198.89013671875" text-anchor="start" dominant-baseline="alphabetic" transform="matrix(1, 0, 0, 1, 0.5, 0.5)" stroke-opacity="0" stroke-linejoin="bevel" stroke-miterlimit="10">0.6</text><text fill="#444444" stroke="none" font-family="helvetica" font-size="11px" font-style="normal" font-weight="normal" text-decoration="normal" x="398.3248248100281" y="198.89013671875" text-anchor="start" dominant-baseline="alphabetic" transform="matrix(1, 0, 0, 1, 0.5, 0.5)">0.8</text><text fill="none" stroke="rgb(0,0,0)" font-family="helvetica" font-size="11px" font-style="normal" font-weight="normal" text-decoration="normal" x="398.3248248100281" y="198.89013671875" text-anchor="start" dominant-baseline="alphabetic" transform="matrix(1, 0, 0, 1, 0.5, 0.5)" stroke-opacity="0" stroke-linejoin="bevel" stroke-miterlimit="10">0.8</text><text fill="#444444" stroke="none" font-family="helvetica" font-size="11px" font-style="normal" font-weight="normal" text-decoration="normal" x="507.4871072769165" y="198.89013671875" text-anchor="start" dominant-baseline="alphabetic" transform="matrix(1, 0, 0, 1, 0.5, 0.5)">1</text><text fill="none" stroke="rgb(0,0,0)" font-family="helvetica" font-size="11px" font-style="normal" font-weight="normal" text-decoration="normal" x="507.4871072769165" y="198.89013671875" text-anchor="start" dominant-baseline="alphabetic" transform="matrix(1, 0, 0, 1, 0.5, 0.5)" stroke-opacity="0" stroke-linejoin="bevel" stroke-miterlimit="10">1</text><path fill="none" stroke="black" paint-order="fill" d="M 81.5 180.5 L 81.5 30.5" stroke-linejoin="bevel" stroke-miterlimit="10"/><path fill="none" stroke="black" paint-order="fill" d="M 75.5 155.5 L 83.5 155.5 M 75.5 105.5 L 83.5 105.5 M 75.5 55.5 L 83.5 55.5" stroke-linejoin="bevel" stroke-miterlimit="10"/><path fill="none" stroke="black" paint-order="fill" d="" stroke-linejoin="bevel" stroke-miterlimit="10"/><text fill="#444444" stroke="none" font-family="helvetica" font-size="11px" font-style="normal" font-weight="normal" text-decoration="normal" x="2.7833328247070312" y="158" text-anchor="start" dominant-baseline="alphabetic" transform="matrix(1, 0, 0, 1, 0.5, 0.5)">ASO_SPF-Fp</text><text fill="none" stroke="rgb(0,0,0)" font-family="helvetica" font-size="11px" font-style="normal" font-weight="normal" text-decoration="normal" x="2.7833328247070312" y="158" text-anchor="start" dominant-baseline="alphabetic" transform="matrix(1, 0, 0, 1, 0.5, 0.5)" stroke-opacity="0" stroke-linejoin="bevel" stroke-miterlimit="10">ASO_SPF-Fp</text><text fill="#444444" stroke="none" font-family="helvetica" font-size="11px" font-style="normal" font-weight="normal" text-decoration="normal" x="19.28333282470703" y="108" text-anchor="start" dominant-baseline="alphabetic" transform="matrix(1, 0, 0, 1, 0.5, 0.5)">ASO_SPF</text><text fill="none" stroke="rgb(0,0,0)" font-family="helvetica" font-size="11px" font-style="normal" font-weight="normal" text-decoration="normal" x="19.28333282470703" y="108" text-anchor="start" dominant-baseline="alphabetic" transform="matrix(1, 0, 0, 1, 0.5, 0.5)" stroke-opacity="0" stroke-linejoin="bevel" stroke-miterlimit="10">ASO_SPF</text><text fill="#444444" stroke="none" font-family="helvetica" font-size="11px" font-style="normal" font-weight="normal" text-decoration="normal" x="25.400001525878906" y="58" text-anchor="start" dominant-baseline="alphabetic" transform="matrix(1, 0, 0, 1, 0.5, 0.5)">WT_SPF</text><text fill="none" stroke="rgb(0,0,0)" font-family="helvetica" font-size="11px" font-style="normal" font-weight="normal" text-decoration="normal" x="25.400001525878906" y="58" text-anchor="start" dominant-baseline="alphabetic" transform="matrix(1, 0, 0, 1, 0.5, 0.5)" stroke-opacity="0" stroke-linejoin="bevel" stroke-miterlimit="10">WT_SPF</text><text fill="#444444" stroke="none" font-family="helvetica" font-size="13px" font-style="normal" font-weight="bold" text-decoration="normal" x="0" y="11" text-anchor="start" dominant-baseline="alphabetic" transform="matrix(1, 0, 0, 1, 81.5, 7.5)">omega 95%CI, lognormal mixed model</text><text fill="none" stroke="rgb(0,0,0)" font-family="helvetica" font-size="13px" font-style="normal" font-weight="bold" text-decoration="normal" x="0" y="11" text-anchor="start" dominant-baseline="alphabetic" transform="matrix(1, 0, 0, 1, 81.5, 7.5)" stroke-opacity="0" stroke-miterlimit="10" stroke-dasharray="">omega 95%CI, lognormal mixed model</text></svg>